<svg xmlns="http://www.w3.org/2000/svg" version="1.1" viewBox="-5.0 -10.0 110.0 135.0">
 <path d="m13.09 57.352c-10.758-5.5898-13.109-13.914-5.5625-24.035 1.3594-1.793 2.9102-3.4336 4.625-4.8945 0.57031-0.49609 1.4375-0.43359 1.9297 0.13672 0.49609 0.57422 0.4375 1.4375-0.13672 1.9336-2.7578 2.3242-5.0195 5.1797-6.6562 8.3906-3.5977 7.3789 0.11328 12.242 6.4766 15.719v0.003907c0.86328-1.625 2.4414-2.7461 4.2578-3.0234 1.8203-0.27734 3.6602 0.32422 4.9688 1.6172 4.1953 1.1953 8.4727 2.0938 12.793 2.6992 4.707 0.69922 9.4531 1.0859 14.211 1.1484 4.7578-0.0625 9.5078-0.44922 14.215-1.1484 4.3203-0.60547 8.5938-1.5078 12.793-2.6992 1.3047-1.293 3.1445-1.8945 4.9648-1.6172 1.8164 0.27734 3.3945 1.3984 4.2578 3.0234 8.9492-4.8906 10.277-11.293 4.0391-19.648h-0.003906c-4.3711-5.3281-10.082-9.3945-16.543-11.781-13.012-5.0977-27.312-5.8828-40.805-2.2422-5.2031 1.375-10.168 3.5352-14.723 6.4023-0.63672 0.40234-1.4766 0.21094-1.8828-0.42188-0.40625-0.63281-0.22656-1.4766 0.40234-1.8867 10.031-6.0781 21.559-9.2266 33.285-9.0859 8.4766-0.035156 16.879 1.5586 24.754 4.6914 8.6484 3.0234 15.906 9.082 20.422 17.051 4.4414 9.1133-0.33203 15.543-8.2734 19.664v0.003906c-0.003907 1.8633-0.90625 3.6094-2.4219 4.6953 4.6953 6.457 3.5664 12.211-3.4531 16.074-0.66016 0.35938-1.4922 0.11719-1.8555-0.54688-0.36328-0.66016-0.12109-1.4922 0.53906-1.8594 5.8281-3.2109 6.2578-7.2656 2.1797-12.559-10.297 3.375-21.055 5.1289-31.891 5.1953-10.652-0.074218-21.234-1.7617-31.379-5.0117-2.1133 2.1172-3.0078 5.1641-2.3711 8.0898 1.418 3.7734 7.2031 5.9844 11.543 7.1602v0.003906c15.496 3.918 31.754 3.625 47.102-0.84375 0.71875-0.23438 1.4922 0.16016 1.7266 0.87891 0.23437 0.72266-0.16016 1.4922-0.87891 1.7266l-2.3164 0.69141c-15.191 3.9492-31.129 4.0156-46.352 0.19141-5.2852-1.4336-11.574-4.0117-13.395-8.8438-1.0117-3.5234-0.15234-7.3203 2.2734-10.066-1.7656-1.0391-2.8516-2.9297-2.8594-4.9766zm11.562-0.85156c0.28125 1.9844-0.47656 3.9766-2.0117 5.2734 8.9141 2.4492 18.109 3.7383 27.355 3.832 9.2461-0.097657 18.438-1.3867 27.355-3.8398-1.5352-1.2891-2.2969-3.2812-2.0078-5.2656-8.3008 2.0469-16.801 3.1523-25.348 3.293-8.5469-0.14062-17.047-1.2461-25.344-3.293zm-3.5859-1.3398c-0.875-0.87891-2.1953-1.1406-3.3398-0.66797-1.1445 0.47656-1.8906 1.5938-1.8906 2.832s0.74609 2.3555 1.8906 2.832c1.1445 0.47266 2.4648 0.21094 3.3398-0.66797 1.1914-1.1953 1.1914-3.1328 0-4.3281zm62.191 0c-0.875-0.875-2.1953-1.1367-3.3359-0.66406-1.1445 0.47266-1.8906 1.5898-1.8906 2.8281s0.74609 2.3555 1.8906 2.8281c1.1406 0.47266 2.4609 0.21094 3.3359-0.66406 1.1914-1.1953 1.1914-3.1328 0-4.3281zm-37.113-16.477c-0.76172 0-1.375-0.61719-1.375-1.375 0-0.76172 0.61328-1.3789 1.375-1.3789h2.5625v-4.0195h-0.80078 0.003906c-0.75781 0-1.375-0.61719-1.375-1.375 0-0.75781 0.61719-1.3711 1.375-1.3711h0.80078l-0.003907-0.86719c0-0.75781 0.61719-1.3711 1.375-1.3711 0.75781 0 1.3711 0.61328 1.3711 1.3711v0.86719h0.80078c0.75781 0 1.3711 0.61328 1.3711 1.3711 0 0.75781-0.61328 1.375-1.3711 1.375h-0.80078v4.0195h2.5703c0.75781 0 1.375 0.61719 1.375 1.375 0 0.76172-0.61719 1.3789-1.375 1.3789h-2.5703v7.0391-0.003906c2.6992-0.49219 4.9688-2.3164 6.0195-4.8516 0.14062-0.33594 0.40625-0.60547 0.74219-0.74219 0.33594-0.14062 0.71484-0.14062 1.0508 0s0.60156 0.41016 0.73828 0.74609c0.14062 0.33594 0.13672 0.71484-0.003906 1.0508-1.6797 4.0391-5.6289 6.6719-10.004 6.6719-4.3789 0-8.3242-2.6328-10.008-6.6719-0.28516-0.69922 0.046875-1.4961 0.74219-1.7891 0.69922-0.28906 1.4961 0.039063 1.7891 0.73438 1.0781 2.5898 3.418 4.4375 6.1875 4.8828v-7.0664zm3.8516-17.254c4.3281 0 8.4844 1.7188 11.547 4.7812s4.7852 7.2148 4.7852 11.547c0 4.332-1.7188 8.4844-4.7812 11.547s-7.2148 4.7852-11.547 4.7852-8.4844-1.7188-11.547-4.7812-4.7852-7.2148-4.7852-11.547c0-4.3281 1.7188-8.4844 4.7812-11.547s7.2148-4.7812 11.547-4.7852zm9.6055 6.7266c-3.8867-3.8867-9.7266-5.0469-14.805-2.9453-5.0742 2.1016-8.3867 7.0547-8.3867 12.551 0 5.4922 3.3125 10.445 8.3867 12.551 5.0781 2.1016 10.918 0.9375 14.805-2.9492 5.3008-5.3047 5.3008-13.902 0-19.207z"/>
</svg>