<svg xmlns="http://www.w3.org/2000/svg" xmlns:xlink="http://www.w3.org/1999/xlink" version="1.1" x="0px" y="0px" viewBox="0 0 96 120" style="enable-background:new 0 0 96 96;" xml:space="preserve"><style type="text/css">
	.st0{fill-rule:evenodd;clip-rule:evenodd;}
</style><path class="st0" d="M25.965,38.544l-0.671,4.173l1.968,2.887l1.968-2.887l-0.671-4.173c-0.399,0.169-0.837,0.263-1.297,0.263  C26.803,38.808,26.364,38.714,25.965,38.544L25.965,38.544z M33.826,54.004v21.481c0,0.797-0.326,1.523-0.853,2.049  c-0.526,0.526-1.252,0.853-2.049,0.853s-1.523-0.327-2.049-0.853c-0.526-0.526-0.853-1.252-0.853-2.049V54.004  c0-0.282-0.153-0.528-0.381-0.659l-0.016-0.009l0,0l-0.016-0.009h0l-0.016-0.008l0,0l-0.016-0.008h0l-0.017-0.007l0,0l-0.017-0.007  l0,0l-0.017-0.007l0,0l-0.018-0.006l0,0l-0.018-0.006l0,0l-0.018-0.005h0l-0.018-0.005h0l-0.018-0.005l0,0l-0.018-0.004l0,0  l-0.019-0.004h0l-0.019-0.003l0,0l-0.019-0.003h0l-0.019-0.002l0,0l-0.019-0.002h0l-0.019-0.001h0l-0.019-0.001h0l-0.019,0h0  l-0.019,0h0l-0.019,0.001l0,0l-0.019,0.001h0l-0.019,0.002l0,0l-0.019,0.002h0l-0.019,0.003l0,0l-0.019,0.003h0l-0.018,0.004l0,0  l-0.018,0.004l0,0l-0.018,0.005h0l-0.018,0.005h0l-0.018,0.005h0l-0.018,0.006l0,0l-0.018,0.006l0,0l-0.017,0.007l0,0l-0.017,0.007  l0,0l-0.017,0.007l0,0l-0.017,0.008l0,0l-0.016,0.008l0,0l-0.016,0.009h0l-0.016,0.009c-0.228,0.131-0.381,0.377-0.381,0.659v21.481  c0,0.797-0.327,1.523-0.853,2.049c-0.526,0.526-1.252,0.853-2.049,0.853c-0.797,0-1.523-0.327-2.049-0.853  c-0.526-0.526-0.853-1.252-0.853-2.049V57.03v-3.026c0-0.419-0.34-0.759-0.759-0.759c-0.419,0-0.759,0.34-0.759,0.759v3.026  c0,0.628-0.258,1.2-0.673,1.615c-0.415,0.415-0.986,0.672-1.615,0.672c-0.628,0-1.2-0.258-1.615-0.672  c-0.415-0.415-0.672-0.987-0.672-1.615v-3.023v-0.003V43.921c0-2.564,1.049-4.895,2.74-6.585c1.689-1.689,4.018-2.738,6.579-2.74  v0.874c0,0.755,0.254,1.453,0.679,2.013l-0.852,5.293c-0.031,0.198,0.017,0.391,0.122,0.545l-0.001,0l2.763,4.053  c0.236,0.346,0.707,0.435,1.052,0.199c0.085-0.058,0.155-0.131,0.208-0.212l2.754-4.04c0.121-0.177,0.156-0.388,0.116-0.583  l-0.846-5.256c0.426-0.56,0.68-1.258,0.68-2.013v-0.874c1.242,0.001,2.424,0.244,3.5,0.685c0.89,0.364,1.714,0.865,2.446,1.475  c-1.691,1.914-2.721,4.425-2.721,7.165v0.064v10.016V54.004L33.826,54.004z M35.344,60.067v15.418c0,1.216-0.497,2.322-1.298,3.122  c-0.801,0.801-1.906,1.298-3.122,1.298c-1.216,0-2.322-0.497-3.122-1.298c-0.199-0.2-0.38-0.418-0.539-0.652  c-0.159,0.234-0.34,0.453-0.539,0.652c-0.801,0.801-1.906,1.298-3.122,1.298c-1.216,0-2.322-0.497-3.122-1.298  c-0.801-0.801-1.298-1.906-1.298-3.122V60.067c-0.638,0.482-1.43,0.768-2.288,0.768c-1.047,0-1.999-0.428-2.688-1.117  c-0.689-0.689-1.117-1.641-1.117-2.688V43.985v-0.003v-0.061c0-2.983,1.219-5.693,3.184-7.658c1.614-1.614,3.731-2.725,6.089-3.07  c-0.596-0.373-1.146-0.812-1.64-1.306c-1.674-1.674-2.71-3.987-2.71-6.541c0-2.554,1.035-4.867,2.71-6.541  c1.674-1.674,3.987-2.71,6.541-2.71c2.555,0,4.867,1.036,6.541,2.71c1.674,1.674,2.709,3.987,2.709,6.541s-1.035,4.867-2.709,6.541  c-0.495,0.495-1.045,0.934-1.641,1.306c0.871,0.129,1.711,0.363,2.508,0.688c1.087,0.444,2.085,1.058,2.96,1.808  c1.52-1.303,3.402-2.194,5.469-2.497c-0.596-0.373-1.146-0.811-1.64-1.306c-1.674-1.674-2.71-3.987-2.71-6.541  s1.035-4.867,2.71-6.541c1.674-1.674,3.987-2.71,6.541-2.71c2.554,0,4.867,1.036,6.541,2.71c1.674,1.674,2.709,3.987,2.709,6.541  s-1.035,4.867-2.709,6.541c-0.494,0.494-1.045,0.933-1.64,1.306c2.067,0.303,3.949,1.194,5.469,2.497  c0.875-0.75,1.873-1.364,2.96-1.808c0.796-0.326,1.636-0.56,2.508-0.688c-0.596-0.373-1.147-0.812-1.642-1.306  c-1.674-1.674-2.709-3.987-2.709-6.541s1.035-4.867,2.709-6.541c1.674-1.674,3.987-2.71,6.541-2.71s4.867,1.036,6.541,2.71  c1.674,1.674,2.71,3.987,2.71,6.541s-1.035,4.867-2.71,6.541c-0.494,0.494-1.045,0.933-1.64,1.306  c2.358,0.345,4.475,1.456,6.089,3.07c1.965,1.965,3.184,4.675,3.184,7.658v0.064v10.02v3.026c0,1.047-0.428,1.999-1.117,2.688  c-0.689,0.689-1.641,1.117-2.688,1.117c-0.857,0-1.65-0.287-2.287-0.768v15.418c0,1.216-0.497,2.322-1.298,3.122  c-0.801,0.801-1.906,1.298-3.122,1.298c-1.216,0-2.322-0.497-3.122-1.298c-0.2-0.2-0.38-0.418-0.539-0.652  c-0.159,0.234-0.34,0.452-0.539,0.652c-0.801,0.801-1.906,1.298-3.122,1.298c-1.216,0-2.322-0.497-3.122-1.298  c-0.801-0.801-1.298-1.906-1.298-3.122V60.067l-0.014,0.01l0,0l-0.037,0.027l-0.037,0.027l0,0l-0.037,0.026l0,0l-0.038,0.026  l-0.038,0.026l0,0l-0.039,0.025l-0.039,0.025l-0.039,0.024L60.3,60.306l0,0l-0.04,0.023l-0.04,0.023h0l-0.04,0.022h0l-0.041,0.022  l-0.041,0.021l0,0l-0.041,0.021l-0.041,0.02l-0.042,0.02l0,0l-0.042,0.02h0l-0.042,0.019l0,0l-0.042,0.019h0l-0.043,0.018  l-0.043,0.017l0,0l-0.043,0.017l0,0l-0.044,0.016l0,0l-0.044,0.016l0,0l-0.044,0.015h0l-0.044,0.015l0,0l-0.045,0.014l0,0  l-0.045,0.014l0,0c-0.015,0.005-0.03,0.009-0.045,0.013l0,0l-0.045,0.012l0,0l-0.045,0.012l0,0l-0.046,0.011l0,0l-0.046,0.011l0,0  l-0.046,0.01l0,0l-0.046,0.01l0,0l-0.047,0.009l0,0l-0.047,0.008l0,0l-0.047,0.008l0,0l-0.047,0.008l0,0l-0.047,0.007l0,0  l-0.047,0.006l0,0c-0.016,0.002-0.032,0.004-0.048,0.006l0,0c-0.016,0.002-0.032,0.003-0.048,0.005l0,0l-0.048,0.004l0,0  l-0.048,0.004l0,0l-0.048,0.003l0,0l-0.049,0.003l0,0l-0.049,0.002l0,0l-0.049,0.001l0,0l-0.049,0.001l0,0l-0.049,0l0,0l-0.04,0  h-0.004l-0.016,0l-0.032-0.001l-0.016,0l-0.026-0.001l-0.022-0.001l-0.037-0.002l-0.003,0l-0.004,0l-0.04-0.002h-0.004l-0.012-0.001  l-0.032-0.002l-0.012-0.001l-0.034-0.003l-0.011-0.001l-0.036-0.004l-0.01-0.001l-0.028-0.003l-0.017-0.002l0,0l-0.039-0.005  l-0.008-0.001l-0.011-0.001l-0.029-0.004l-0.016-0.002l-0.028-0.004l-0.016-0.002l-0.038-0.006l-0.003,0l-0.005-0.001l-0.038-0.007  l-0.004-0.001l-0.034-0.006l-0.004-0.001l-0.024-0.005l-0.017-0.003l-0.024-0.005l-0.022-0.005l-0.014-0.003l-0.009-0.002  l-0.038-0.008l0,0l-0.038-0.009l-0.027-0.007l-0.016-0.004l-0.027-0.007l-0.01-0.003L57.363,60.7l-0.001,0l-0.033-0.009  l-0.004-0.001l-0.037-0.011l-0.004-0.001l-0.033-0.01l-0.001,0l-0.026-0.008l-0.018-0.006l-0.021-0.007l-0.014-0.005  c-0.044-0.015-0.088-0.03-0.131-0.046l-0.008-0.003l-0.027-0.01l-0.014-0.005l-0.026-0.01l-0.008-0.003l-0.029-0.012l-0.035-0.015  l-0.029-0.013l-0.007-0.003l-0.027-0.012l-0.011-0.005l-0.027-0.013l-0.007-0.003c-0.042-0.019-0.083-0.039-0.124-0.06l-0.011-0.006  c-0.021-0.011-0.042-0.021-0.062-0.033l-0.003-0.002c-0.032-0.017-0.063-0.034-0.094-0.052l-0.003-0.002  c-0.098-0.056-0.193-0.116-0.285-0.18l-0.031-0.022c-0.019-0.014-0.039-0.028-0.057-0.042l-0.007-0.005l-0.025-0.019l-0.002-0.001  v15.418c0,1.216-0.497,2.322-1.298,3.122c-0.8,0.801-1.906,1.298-3.122,1.298c-1.216,0-2.322-0.497-3.122-1.298  c-0.199-0.2-0.38-0.418-0.539-0.652c-0.159,0.234-0.339,0.452-0.539,0.652c-0.801,0.801-1.906,1.298-3.122,1.298  c-1.216,0-2.321-0.497-3.122-1.298c-0.801-0.801-1.298-1.906-1.298-3.122V60.067l-0.014,0.01l-0.037,0.027l0,0l-0.037,0.027  l-0.037,0.026l-0.038,0.026l0,0l-0.038,0.026l-0.038,0.025l0,0l-0.039,0.025l0,0l-0.039,0.024l0,0l-0.039,0.024l-0.04,0.023l0,0  l-0.04,0.023l-0.04,0.022l-0.041,0.022l0,0l-0.041,0.021l-0.041,0.021l0,0l-0.041,0.02l0,0l-0.042,0.02l-0.042,0.02l-0.042,0.019  l-0.043,0.019l-0.043,0.018l0,0l-0.043,0.017l-0.043,0.017l-0.043,0.016l-0.044,0.016l-0.044,0.015l-0.044,0.015l-0.044,0.014  l-0.045,0.014c-0.015,0.005-0.03,0.009-0.045,0.013l-0.045,0.012l-0.046,0.012l-0.046,0.011l-0.046,0.011l-0.046,0.01  c-0.015,0.003-0.031,0.007-0.046,0.01l-0.047,0.009l-0.047,0.008l-0.047,0.008l-0.047,0.008l-0.047,0.007l-0.048,0.006  c-0.016,0.002-0.031,0.004-0.047,0.006c-0.016,0.002-0.032,0.003-0.048,0.005l-0.048,0.004l-0.048,0.004l-0.048,0.003l-0.049,0.003  l-0.048,0.002l-0.049,0.001l-0.049,0.001l-0.049,0l-0.049,0l-0.049-0.001l-0.048-0.001c-0.017,0-0.033-0.001-0.049-0.002  l-0.049-0.003l-0.048-0.003l-0.048-0.004l-0.048-0.004c-0.016-0.002-0.032-0.003-0.048-0.005c-0.016-0.002-0.032-0.004-0.048-0.006  L37.1,60.798c-0.016-0.002-0.031-0.004-0.047-0.007l-0.047-0.008c-0.016-0.003-0.031-0.005-0.047-0.008l-0.047-0.008l-0.046-0.009  l-0.046-0.01l-0.046-0.01l0,0l-0.046-0.011l-0.046-0.011l-0.045-0.012l-0.045-0.012l-0.045-0.013l-0.045-0.014l-0.044-0.014l0,0  l-0.044-0.015l0,0l-0.044-0.015l-0.044-0.016l-0.044-0.016l-0.043-0.017l-0.043-0.017l-0.043-0.018l0,0l-0.042-0.019l-0.042-0.019  l-0.042-0.02l0,0l-0.042-0.02l-0.041-0.02l-0.041-0.021l-0.041-0.021l-0.041-0.022l-0.04-0.022l0,0l-0.04-0.023l-0.04-0.023  l-0.039-0.024l0,0l-0.039-0.024l-0.039-0.025l0,0l-0.039-0.025l0,0l-0.038-0.026l0,0l-0.038-0.026l-0.038-0.026l-0.037-0.027l0,0  l-0.037-0.027L35.344,60.067L35.344,60.067z M72.075,34.596v0.874c0,0.755-0.254,1.453-0.68,2.013l0.846,5.256  c0.041,0.195,0.005,0.405-0.116,0.583l-2.754,4.04c-0.053,0.081-0.123,0.154-0.208,0.212c-0.345,0.236-0.817,0.147-1.052-0.199  l-2.763-4.053l0.001,0c-0.105-0.154-0.154-0.347-0.122-0.545l0.852-5.293c-0.426-0.56-0.679-1.258-0.679-2.013v-0.874  c-1.242,0.001-2.424,0.244-3.5,0.685c-0.89,0.364-1.714,0.865-2.447,1.475c1.691,1.914,2.721,4.425,2.721,7.165v0.064v10.016v0.003  v3.026v18.455c0,0.797,0.327,1.523,0.853,2.049c0.526,0.526,1.252,0.853,2.049,0.853s1.523-0.327,2.049-0.853  c0.526-0.526,0.853-1.252,0.853-2.049V54.004h0v-0.02l0,0l0.001-0.02l0,0l0.001-0.019l0,0l0.002-0.019l0,0l0.002-0.019l0,0  l0.003-0.019l0,0l0.003-0.019l0,0c0.001-0.006,0.002-0.013,0.004-0.019l0,0l0.004-0.019l0,0c0.001-0.006,0.003-0.012,0.005-0.018  l0,0l0.005-0.018l0,0l0.005-0.018l0,0l0.006-0.018l0,0l0.006-0.017l0,0l0.007-0.017l0,0l0.007-0.017l0,0l0.007-0.017l0,0  l0.008-0.017h0l0.008-0.016l0,0l0.009-0.016l0,0l0.009-0.016l0,0l0.009-0.016l0,0l0.01-0.016l0,0l0.01-0.015l0,0l0.01-0.015h0  l0.01-0.015l0,0l0.011-0.014h0l0.011-0.014l0,0l0.012-0.014h0l0.012-0.014l0,0l0.012-0.014l0,0l0.013-0.013l0,0l0.013-0.013l0,0  l0.013-0.013l0,0l0.014-0.012l0,0l0.014-0.012l0,0l0.014-0.012l0,0l0.014-0.011l0,0l0.015-0.011l0,0l0.015-0.01l0,0l0.015-0.01l0,0  l0.016-0.01l0,0l0.016-0.009l0,0l0.016-0.009l0,0l0.016-0.009l0,0l0.016-0.008l0,0l0.017-0.008l0,0l0.017-0.007l0,0l0.017-0.007l0,0  l0.017-0.007l0,0l0.018-0.006l0,0l0.018-0.006l0,0l0.018-0.005l0,0l0.018-0.005l0,0l0.018-0.005l0,0l0.018-0.004l0,0l0.019-0.004  l0,0l0.019-0.003l0,0l0.019-0.003l0,0l0.019-0.002l0,0l0.019-0.002l0,0l0.019-0.001l0,0l0.02-0.001l0,0l0.02,0l0,0l0.02,0l0,0  l0.02,0.001l0,0l0.019,0.001l0,0l0.019,0.002l0,0l0.019,0.002l0,0l0.019,0.003l0,0l0.019,0.003l0,0l0.018,0.004h0l0.018,0.004h0  l0.018,0.005l0,0l0.018,0.005l0,0l0.018,0.005l0,0l0.018,0.006l0,0l0.017,0.006h0l0.017,0.007h0l0.017,0.007l0,0l0.017,0.007l0,0  l0.017,0.008l0,0l0.016,0.008l0,0l0.016,0.009l0,0l0.016,0.009l0,0l0.016,0.009l0,0l0.016,0.01l0,0l0.015,0.01l0,0l0.015,0.01l0,0  l0.015,0.011l0,0l0.014,0.011l0,0l0.014,0.012l0,0l0.014,0.012l0,0l0.014,0.012l0,0l0.013,0.013l0,0l0.013,0.013l0,0l0.013,0.013  l0,0l0.012,0.014l0,0l0.012,0.014l0,0l0.012,0.014l0,0l0.011,0.014l0,0l0.011,0.014h0l0.01,0.015l0,0l0.01,0.015l0,0l0.01,0.015h0  l0.01,0.016l0,0l0.009,0.016l0,0l0.009,0.016l0,0l0.008,0.016l0,0l0.008,0.016l0,0l0.008,0.017l0,0l0.007,0.017l0,0l0.007,0.017h0  l0.007,0.017l0,0l0.006,0.017l0,0l0.006,0.018l0,0l0.005,0.018l0,0l0.005,0.018l0,0l0.005,0.018l0,0l0.004,0.019l0,0l0.003,0.019h0  l0.003,0.019h0l0.003,0.019l0,0l0.002,0.019h0l0.002,0.019l0,0l0.001,0.019l0,0l0.001,0.02h0v0.02l0,0v21.481  c0,0.797,0.327,1.523,0.853,2.049c0.526,0.526,1.252,0.853,2.049,0.853s1.523-0.327,2.049-0.853  c0.526-0.526,0.853-1.252,0.853-2.049V57.03v-3.026c0-0.419,0.34-0.759,0.759-0.759c0.419,0,0.759,0.34,0.759,0.759v3.026  c0,0.628,0.257,1.2,0.672,1.615c0.415,0.415,0.987,0.672,1.615,0.672c0.628,0,1.2-0.258,1.615-0.672  c0.415-0.415,0.673-0.987,0.673-1.615v-3.026v-10.02v-0.064c0-2.564-1.049-4.895-2.74-6.585  C76.965,35.647,74.636,34.598,72.075,34.596L72.075,34.596z M70.034,38.544c-0.399,0.169-0.837,0.263-1.297,0.263  c-0.459,0-0.898-0.094-1.297-0.263l-0.672,4.173l1.968,2.887l1.968-2.887L70.034,38.544L70.034,38.544z M66.918,34.596v0.874  c0,0.5,0.205,0.954,0.535,1.284c0.33,0.33,0.785,0.535,1.285,0.535c0.499,0,0.954-0.205,1.285-0.535  c0.33-0.33,0.535-0.785,0.535-1.284v-0.874H66.918L66.918,34.596z M74.206,19.878c-1.399-1.399-3.332-2.265-5.468-2.265  c-2.135,0-4.069,0.865-5.468,2.265c-1.399,1.399-2.265,3.332-2.265,5.468c0,2.136,0.865,4.069,2.265,5.468  c1.399,1.399,3.333,2.265,5.468,2.265c2.135,0,4.069-0.865,5.468-2.265c1.4-1.399,2.265-3.332,2.265-5.468  C76.47,23.21,75.605,21.277,74.206,19.878L74.206,19.878z M56.081,54.004L56.081,54.004v3.026l0,0.029l0,0l0.001,0.029l0,0  l0.001,0.029l0,0l0.001,0.029l0,0l0.002,0.029l0,0l0.002,0.029l0,0l0.002,0.029l0,0l0.003,0.029l0,0l0.003,0.029l0,0L56.1,57.32l0,0  l0.004,0.028l0,0l0.004,0.028h0l0.004,0.028l0,0l0.005,0.028l0,0l0.005,0.028l0,0l0.006,0.028l0,0l0.006,0.028l0,0l0.006,0.028l0,0  l0.007,0.028l0,0l0.007,0.027h0l0.007,0.027l0,0l0.008,0.027l0,0l0.008,0.027l0,0l0.008,0.027l0,0l0.009,0.027l0,0l0.009,0.027l0,0  l0.009,0.027l0,0l0.009,0.026l0,0l0.01,0.026l0,0l0.01,0.026l0,0l0.01,0.026h0l0.011,0.026h0l0.011,0.026h0l0.011,0.025l0,0  l0.012,0.025h0l0.012,0.025l0,0l0.012,0.025l0,0l0.013,0.025l0,0l0.013,0.024l0,0l0.013,0.024l0,0l0.013,0.024l0,0l0.014,0.024l0,0  L56.4,58.19h0l0.014,0.024l0,0l0.014,0.024l0,0l0.015,0.023l0,0l0.015,0.023l0,0l0.015,0.023l0,0l0.015,0.023l0,0l0.016,0.022l0,0  l0.016,0.022l0,0l0.016,0.022l0,0l0.017,0.022l0,0l0.017,0.021l0,0l0.017,0.022l0,0l0.017,0.021l0,0l0.018,0.021h0l0.018,0.021l0,0  l0.018,0.021l0,0l0.018,0.02l0,0l0.018,0.02l0,0l0.019,0.02l0,0l0.019,0.02l0,0l0.019,0.02l0,0l0.02,0.019h0l0.02,0.019l0,0  l0.02,0.019l0,0l0.02,0.018l0,0l0.02,0.018l0,0l0.021,0.018l0,0l0.021,0.018l0,0l0.021,0.018h0l0.021,0.017l0,0l0.021,0.017l0,0  l0.022,0.017l0,0l0.022,0.017l0,0l0.022,0.016l0,0l0.022,0.016l0,0l0.022,0.016l0,0l0.023,0.016l0,0l0.023,0.015l0,0l0.023,0.015  l0,0l0.023,0.015l0,0l0.023,0.014l0,0l0.024,0.014h0l0.024,0.014h0l0.024,0.014l0,0l0.024,0.013l0,0l0.024,0.013l0,0l0.024,0.013h0  l0.025,0.012l0,0l0.025,0.012h0l0.025,0.012l0,0l0.025,0.012l0,0l0.025,0.011h0l0.025,0.011l0,0l0.026,0.011l0,0l0.026,0.01h0  l0.026,0.01l0,0l0.026,0.01l0,0l0.026,0.009l0,0l0.027,0.009l0,0l0.026,0.009h0l0.027,0.009l0,0l0.027,0.008h0l0.027,0.008l0,0  l0.027,0.008h0l0.027,0.007l0,0l0.027,0.007l0,0l0.028,0.007h0l0.028,0.006l0,0l0.028,0.006l0,0l0.028,0.006l0,0l0.028,0.005l0,0  l0.028,0.005h0l0.028,0.005l0,0l0.028,0.004l0,0l0.028,0.004l0,0l0.029,0.003l0,0l0.029,0.003l0,0l0.029,0.003l0,0l0.029,0.002h0  l0.029,0.002l0,0l0.029,0.002l0,0l0.029,0.001l0,0l0.029,0.001l0,0l0.029,0l0,0l0.029,0l0,0l0.03,0l0,0l0.029,0h0l0.029-0.001l0,0  l0.029-0.001h0c0.019-0.001,0.039-0.002,0.058-0.004l0,0l0.029-0.002l0,0l0.029-0.003h0l0.029-0.003l0,0l0.028-0.003l0,0  l0.029-0.004l0,0l0.028-0.004l0,0c0.019-0.003,0.038-0.006,0.056-0.009l0,0l0.028-0.005l0,0l0.028-0.006l0,0  c0.019-0.004,0.037-0.008,0.055-0.012l0,0l0.027-0.007l0.028-0.007l0,0l0.027-0.007l0,0c0.018-0.005,0.036-0.01,0.054-0.015  l0.027-0.008l0,0l0.027-0.009l0,0l0.027-0.009c0.018-0.006,0.035-0.012,0.053-0.019l0,0l0.026-0.01l0,0l0.026-0.01l0,0l0.026-0.01h0  l0.025-0.011l0,0c0.017-0.007,0.034-0.015,0.051-0.022l0,0l0.025-0.012l0.025-0.012l0,0l0.025-0.012l0.025-0.012l0,0  c0.025-0.013,0.049-0.026,0.073-0.039h0l0.024-0.014c0.024-0.014,0.048-0.028,0.071-0.043l0,0c0.024-0.015,0.046-0.03,0.069-0.045h0  l0.023-0.016l0,0c0.015-0.01,0.03-0.021,0.045-0.032l0.022-0.016l0,0l0.022-0.017l0,0l0.021-0.017l0,0  c0.014-0.011,0.029-0.023,0.043-0.035h0l0.021-0.018l0,0l0.021-0.018l0,0l0.02-0.018h0c0.014-0.012,0.027-0.024,0.041-0.037l0,0  l0.02-0.019l0,0l0.02-0.019h0l0.019-0.019h0l0.019-0.02l0,0l0.019-0.02l0,0l0.019-0.02l0,0l0.018-0.02h0l0.018-0.021l0,0l0.018-0.02  l0,0l0.018-0.021h0l0.018-0.021l0,0l0.017-0.021l0,0l0.017-0.022l0,0l0.017-0.021l0,0l0.017-0.022l0,0l0.016-0.022l0,0l0.016-0.022  l0,0l0.016-0.022l0,0l0.016-0.023l0,0l0.015-0.023l0,0l0.015-0.023l0,0l0.015-0.023l0,0l0.015-0.024l0,0l0.014-0.024l0,0  l0.014-0.024l0,0l0.014-0.024l0,0l0.013-0.024h0l0.013-0.024l0,0l0.013-0.024l0,0l0.013-0.025l0,0l0.012-0.025l0,0l0.012-0.025l0,0  l0.011-0.025h0l0.011-0.025l0,0l0.011-0.026l0,0l0.011-0.026l0,0l0.01-0.026h0l0.01-0.026l0,0l0.01-0.026l0,0l0.009-0.026l0,0  l0.009-0.027l0,0l0.009-0.027l0,0l0.008-0.027l0,0l0.008-0.027l0,0l0.008-0.027l0,0l0.008-0.027l0,0l0.007-0.027h0l0.007-0.027l0,0  l0.007-0.028l0,0l0.006-0.028l0,0l0.006-0.028l0,0l0.006-0.028l0,0l0.005-0.028l0,0l0.005-0.028h0l0.004-0.028h0l0.004-0.028l0,0  l0.004-0.028l0,0l0.003-0.029l0,0l0.003-0.029l0,0l0.003-0.029l0,0l0.002-0.029l0,0l0.002-0.029h0l0.001-0.029l0,0l0.001-0.029l0,0  l0.001-0.029h0l0-0.029h0V57.03v-3.026v-10.02v-0.064c0-2.564-1.049-4.895-2.74-6.585c-1.689-1.689-4.018-2.738-6.579-2.74v0.874  c0,0.755-0.253,1.453-0.679,2.013l0.846,5.256c0.041,0.195,0.006,0.405-0.115,0.583l-2.754,4.04  c-0.053,0.081-0.122,0.154-0.208,0.212c-0.346,0.236-0.817,0.147-1.052-0.199l-2.763-4.053l0.001,0  c-0.105-0.154-0.154-0.347-0.122-0.545l0.851-5.293c-0.426-0.56-0.679-1.258-0.679-2.013v-0.874c-2.561,0.002-4.89,1.051-6.579,2.74  c-1.69,1.691-2.74,4.021-2.74,6.585v0.064v10.02v3.026c0,0.628,0.258,1.2,0.673,1.615l0.02,0.019l0.02,0.019l0.02,0.019l0.02,0.018  l0,0l0.02,0.018l0,0l0.021,0.018l0.021,0.018l0.021,0.018L36.2,58.81l0,0l0.021,0.017l0.022,0.017l0.022,0.017l0.022,0.016l0,0  l0.022,0.016l0,0l0.022,0.016h0l0.023,0.016l0.023,0.015h0l0.023,0.015l0,0l0.023,0.015l0,0l0.023,0.014l0,0l0.024,0.014l0,0  l0.024,0.014l0,0l0.024,0.014l0.024,0.013l0,0l0.024,0.013l0,0l0.025,0.013l0,0l0.025,0.012l0.025,0.012l0,0l0.025,0.012l0,0  l0.025,0.012l0,0l0.025,0.011l0,0l0.026,0.011l0,0l0.026,0.011l0,0l0.026,0.01l0,0l0.026,0.01l0,0l0.026,0.01l0,0l0.026,0.009l0,0  l0.026,0.009l0.027,0.009l0,0l0.027,0.009l0,0l0.027,0.008l0,0l0.027,0.008l0,0l0.027,0.008l0.027,0.007l0,0l0.028,0.007l0,0  l0.028,0.007l0.028,0.006l0,0l0.028,0.006l0.028,0.006l0,0l0.028,0.005l0,0l0.028,0.005l0,0l0.028,0.005l0.028,0.004l0.029,0.004  l0.029,0.003l0.029,0.003l0.029,0.003l0,0l0.029,0.002l0.029,0.002v0l0.029,0.001l0.029,0.001l0.029,0.001l0.029,0l0.029,0l0.029,0  l0.029,0l0.029-0.001l0.029-0.001l0.029-0.001v0l0.029-0.002l0.029-0.002l0.029-0.003l0.029-0.003l0.029-0.003l0.028-0.004  l0.028-0.004l0.028-0.005l0,0l0.028-0.005l0.028-0.005l0,0l0.028-0.006l0.028-0.006l0,0l0.028-0.006l0.028-0.007l0,0l0.027-0.007  l0.028-0.007l0.027-0.008l0,0l0.027-0.008l0,0l0.027-0.008l0.027-0.009l0,0l0.026-0.009h0l0.026-0.009l0,0l0.026-0.009l0,0  l0.026-0.01l0,0l0.026-0.01l0.026-0.01l0.026-0.011l0,0l0.026-0.011l0,0l0.025-0.011l0.025-0.012l0,0l0.025-0.012l0.025-0.012h0  l0.025-0.012l0,0l0.024-0.013l0,0l0.024-0.013l0,0l0.024-0.013l0.024-0.014l0,0l0.024-0.014l0,0l0.023-0.014l0,0l0.023-0.014  l0.023-0.015l0,0l0.023-0.015l0,0l0.023-0.015l0.023-0.016l0,0l0.023-0.016l0,0l0.022-0.016h0l0.022-0.016l0.022-0.017l0.022-0.017  l0.021-0.017l0,0l0.021-0.017l0.021-0.018l0.021-0.018l0.021-0.018l0.021-0.018l0,0l0.02-0.018l0.02-0.019l0.02-0.019l0.02-0.019  l0.019-0.02l0.019-0.02l0.019-0.02l0.019-0.02l0,0l0.018-0.02v0l0.018-0.02l0.018-0.021l0.018-0.021l0.017-0.021h0l0.017-0.022  l0.017-0.021l0.016-0.022l0.017-0.022l0,0l0.016-0.022l0,0l0.016-0.022l0,0l0.016-0.023l0.015-0.023l0,0l0.015-0.023l0,0  l0.015-0.023h0l0.014-0.024l0,0L39.6,58.19l0,0l0.014-0.024l0,0l0.014-0.024h0l0.013-0.024l0,0l0.013-0.024l0,0l0.013-0.024l0,0  l0.012-0.025l0.013-0.025v0l0.012-0.025l0,0l0.012-0.025l0,0l0.011-0.025v0l0.011-0.026l0,0l0.011-0.026l0,0l0.01-0.026l0,0  l0.01-0.026h0l0.01-0.026l0,0l0.01-0.026l0,0l0.009-0.027l0,0l0.009-0.027l0,0l0.008-0.027h0l0.008-0.027v0l0.008-0.027h0  l0.007-0.027l0,0l0.007-0.027l0,0l0.007-0.027l0,0l0.007-0.028h0l0.006-0.028h0l0.006-0.028h0l0.005-0.028l0,0l0.005-0.028h0  l0.005-0.028l0,0l0.004-0.028l0,0l0.004-0.028h0L39.9,57.32l0,0l0.003-0.029l0,0l0.003-0.029l0,0l0.003-0.029l0,0l0.003-0.029l0,0  l0.002-0.029l0,0l0.002-0.029l0,0l0.001-0.029l0,0l0.001-0.029l0,0l0.001-0.029l0,0V57.03v-3.026l0,0l0-0.02l0,0l0.001-0.02l0,0  l0.001-0.019l0,0l0.002-0.019l0,0l0.002-0.019l0,0l0.003-0.019l0,0l0.003-0.019l0,0l0-0.001v-0.001v0l0-0.001v-0.001l0-0.001v-0.001  l0.003-0.014l0,0l0.004-0.019l0,0v0l0-0.001v-0.001l0,0l0-0.002l0-0.001l0.003-0.013v-0.001h0l0.005-0.018l0,0l0.005-0.018l0,0  l0.006-0.018l0,0l0.006-0.017l0,0l0.007-0.017l0,0l0.007-0.017l0,0l0.007-0.017l0,0l0.008-0.017h0l0.008-0.016l0,0l0.008-0.016h0  l0.009-0.016l0,0l0.009-0.016l0,0l0.01-0.016l0,0l0.01-0.015l0,0l0.01-0.015l0,0l0.011-0.015l0,0l0.011-0.014l0,0l0.012-0.014l0,0  l0.012-0.014l0,0l0.012-0.014l0,0l0.013-0.014l0,0l0.013-0.013l0,0l0.013-0.013h0l0.013-0.013h0l0.014-0.012l0,0l0.014-0.012l0,0  l0.014-0.012l0,0l0.014-0.011l0,0l0.015-0.011l0,0l0.015-0.01l0,0l0.015-0.01l0,0l0.015-0.01h0l0.015-0.009l0,0l0.016-0.009l0,0  l0.016-0.009l0,0l0.016-0.008l0,0l0.017-0.008l0,0l0.017-0.007h0l0.017-0.007l0,0l0.017-0.007l0,0l0.018-0.006l0,0l0.018-0.006l0,0  l0.018-0.005l0,0l0.018-0.005l0,0l0.018-0.005l0,0l0.018-0.004l0,0l0.019-0.004l0,0l0.019-0.003l0,0l0.019-0.003l0,0l0.019-0.002  l0,0l0.019-0.002l0,0l0.019-0.001l0,0l0.019-0.001l0,0l0.02,0l0,0l0.02,0l0.02,0.001l0.019,0.001l0.019,0.002l0.019,0.002  l0.019,0.003l0.019,0.003l0.018,0.004l0.018,0.004l0.018,0.005l0.018,0.005l0.018,0.005l0.018,0.006l0.017,0.006l0.017,0.007  l0.017,0.007l0.017,0.007l0.017,0.008l0.016,0.008l0.016,0.009l0.016,0.009l0.016,0.009l0.015,0.01l0.015,0.01l0.015,0.01  l0.015,0.011l0.014,0.011l0.014,0.012l0.014,0.012l0.014,0.012l0.013,0.013l0.013,0.013l0.013,0.013l0.012,0.014l0.012,0.014  l0.012,0.014l0.011,0.014l0.011,0.014l0.011,0.015l0.011,0.015l0.01,0.015l0.01,0.016l0.009,0.016l0.009,0.016l0.008,0.016  l0.008,0.016l0.008,0.017l0.007,0.017l0.007,0.017l0.007,0.017l0.006,0.017l0.006,0.018l0.005,0.018l0.005,0.018l0.005,0.018  l0.004,0.019l0.003,0.019l0.003,0.019l0.003,0.019l0.002,0.019l0.002,0.019l0.001,0.019l0.001,0.02l0,0.02v3.026v18.455  c0,0.797,0.327,1.523,0.853,2.049c0.526,0.526,1.252,0.853,2.049,0.853s1.523-0.327,2.049-0.853  c0.526-0.526,0.853-1.252,0.853-2.049V54.004l0,0l0-0.02l0,0l0.001-0.02l0,0l0.001-0.019h0l0.001-0.019h0l0.002-0.019l0,0  l0.002-0.019h0l0.003-0.019l0,0c0.001-0.006,0.002-0.013,0.003-0.019l0,0l0.004-0.019l0,0c0.001-0.006,0.003-0.012,0.005-0.018l0,0  l0.005-0.018l0,0l0.005-0.018l0,0l0.006-0.018h0l0.006-0.017l0,0l0.007-0.017h0l0.007-0.017l0,0l0.007-0.017l0,0l0.008-0.017l0,0  l0.008-0.016l0,0l0.008-0.016l0,0l0.009-0.016h0l0.009-0.016l0,0l0.01-0.016h0l0.01-0.015l0,0l0.01-0.015l0,0l0.011-0.015l0,0  l0.011-0.014l0,0l0.011-0.014l0,0l0.012-0.014l0,0l0.012-0.014l0,0l0.013-0.014l0,0l0.013-0.013l0,0l0.013-0.013l0,0l0.013-0.013  l0,0l0.014-0.012l0,0l0.014-0.012l0,0l0.014-0.012l0,0l0.014-0.011l0,0l0.015-0.011l0,0l0.015-0.01l0,0l0.015-0.01l0,0l0.016-0.01  l0,0l0.016-0.009h0l0.016-0.009l0,0l0.016-0.009l0,0l0.016-0.008h0l0.016-0.008l0,0l0.017-0.007l0,0l0.017-0.007h0l0.017-0.007h0  l0.017-0.006h0l0.018-0.006l0,0l0.018-0.005l0,0l0.018-0.005l0,0l0.019-0.005l0,0l0.018-0.004h0l0.018-0.004l0,0l0.019-0.003h0  l0.019-0.003l0,0l0.019-0.002h0l0.019-0.002l0,0l0.019-0.001l0,0l0.02-0.001l0,0l0.02,0l0,0l0.02,0l0,0l0.02,0.001l0,0l0.019,0.001  l0,0l0.019,0.002l0,0l0.019,0.002l0,0l0.019,0.003l0,0l0.019,0.003l0,0l0.019,0.004l0,0l0.018,0.004l0,0l0.018,0.005l0,0  l0.018,0.005l0,0l0.018,0.005l0,0l0.018,0.006l0,0l0.017,0.006l0,0l0.017,0.007l0,0l0.017,0.007l0,0l0.017,0.007l0,0l0.017,0.008  l0,0l0.016,0.008l0,0l0.016,0.009l0,0l0.016,0.009l0,0l0.016,0.009h0l0.015,0.01l0,0l0.015,0.01l0,0l0.015,0.01l0,0l0.015,0.011l0,0  l0.014,0.011l0,0l0.014,0.012l0,0l0.014,0.012l0,0l0.014,0.012h0l0.013,0.013h0l0.013,0.013l0,0l0.013,0.013l0,0l0.013,0.014l0,0  l0.012,0.014l0,0l0.012,0.014l0,0l0.012,0.014l0,0l0.011,0.014l0,0l0.01,0.015h0l0.01,0.015l0,0l0.01,0.015l0,0l0.01,0.016l0,0  l0.009,0.016l0,0l0.009,0.016h0l0.008,0.016l0,0l0.008,0.016h0l0.008,0.017l0,0l0.007,0.017l0,0l0.007,0.017l0,0l0.007,0.017l0,0  l0.006,0.017l0,0l0.006,0.018l0,0l0.005,0.018l0,0l0.005,0.018l0,0l0.004,0.018l0,0l0.004,0.019l0,0l0.004,0.019l0,0l0.003,0.019  l0,0l0.003,0.019l0,0l0.002,0.019l0,0l0.002,0.019l0,0l0.001,0.019l0,0l0.001,0.02l0,0l0,0.02l0,0v21.481  c0,0.797,0.326,1.523,0.853,2.049c0.526,0.526,1.252,0.853,2.049,0.853c0.797,0,1.523-0.327,2.049-0.853  c0.526-0.526,0.853-1.252,0.853-2.049V57.03v-3.026l0,0l0-0.02l0,0l0.001-0.02l0,0l0.001-0.019l0,0l0.002-0.019l0,0l0.002-0.019l0,0  l0.003-0.019l0,0l0.003-0.019l0,0c0.001-0.006,0.002-0.013,0.003-0.019h0l0.004-0.019l0,0c0.001-0.006,0.003-0.012,0.004-0.018l0,0  l0.005-0.018l0,0l0.005-0.018h0l0.006-0.018l0,0l0.006-0.017h0l0.007-0.017l0,0l0.007-0.017h0l0.007-0.017l0,0l0.008-0.017l0,0  l0.008-0.016l0,0l0.008-0.016l0,0l0.009-0.016l0,0l0.009-0.016l0,0l0.01-0.016l0,0l0.01-0.015h0l0.01-0.015l0,0l0.011-0.015l0,0  l0.011-0.014l0,0l0.011-0.014h0l0.012-0.014l0,0l0.012-0.014l0,0l0.012-0.014h0l0.012-0.013h0l0.013-0.013l0,0l0.013-0.013l0,0  l0.014-0.012h0l0.014-0.012h0l0.014-0.012l0,0l0.014-0.011l0,0l0.015-0.011l0,0l0.015-0.01l0,0l0.015-0.01h0l0.015-0.01l0,0  l0.016-0.009l0,0l0.016-0.009h0l0.016-0.009l0,0l0.016-0.008l0,0l0.017-0.008l0,0l0.017-0.007l0,0l0.017-0.007l0,0l0.017-0.007l0,0  l0.018-0.006l0,0l0.018-0.006h0l0.018-0.005l0,0l0.018-0.005h0l0.018-0.005l0,0l0.018-0.004l0,0l0.019-0.004l0,0l0.019-0.003l0,0  l0.019-0.003l0,0l0.019-0.002l0,0l0.019-0.002l0,0l0.019-0.001l0,0l0.019-0.001h0l0.02,0l0,0l0.02,0l0,0l0.019,0.001h0l0.019,0.001  l0,0l0.019,0.002l0,0l0.019,0.002h0l0.019,0.003l0,0l0.019,0.003h0l0.018,0.004l0,0l0.018,0.004l0,0l0.018,0.005l0,0l0.018,0.005  l0,0l0.018,0.005l0,0l0.018,0.006l0,0l0.018,0.006l0,0l0.017,0.007l0,0l0.017,0.007l0,0l0.017,0.007h0l0.016,0.008l0,0l0.016,0.008  h0l0.016,0.009l0,0l0.016,0.009l0,0l0.016,0.009l0,0l0.015,0.01l0,0l0.015,0.01h0l0.015,0.01h0l0.014,0.011h0l0.014,0.011l0,0  l0.014,0.012l0,0l0.014,0.012l0,0l0.014,0.012l0,0l0.013,0.013l0,0l0.013,0.013l0,0l0.013,0.013l0,0l0.012,0.014l0,0l0.012,0.014  l0,0l0.012,0.014l0,0l0.011,0.014l0,0l0.011,0.014l0,0l0.011,0.015l0,0l0.011,0.015l0,0l0.01,0.015l0,0l0.01,0.016l0,0l0.009,0.016  l0,0l0.009,0.016l0,0l0.009,0.016l0,0l0.008,0.016l0,0l0.008,0.017h0l0.007,0.017l0,0l0.007,0.017l0,0l0.007,0.017l0,0l0.006,0.017  l0,0l0.006,0.018l0,0l0.005,0.018h0l0.005,0.018l0,0l0.004,0.018h0l0.004,0.019l0,0l0.003,0.019l0,0l0.003,0.019l0,0l0.002,0.019h0  l0.002,0.019l0,0l0.002,0.019l0,0l0.001,0.019h0l0.001,0.02l0,0L56.081,54.004L56.081,54.004z M49.296,38.544  c-0.399,0.169-0.837,0.263-1.296,0.263c-0.459,0-0.897-0.094-1.297-0.263l-0.671,4.173L48,45.604l1.968-2.887L49.296,38.544  L49.296,38.544z M46.18,34.596v0.874c0,0.5,0.205,0.954,0.535,1.284c0.33,0.33,0.785,0.535,1.284,0.535  c0.5,0,0.954-0.205,1.285-0.535c0.33-0.33,0.535-0.785,0.535-1.284v-0.874H48H46.18L46.18,34.596z M53.468,19.878  c-1.399-1.399-3.333-2.265-5.468-2.265c-2.135,0-4.069,0.866-5.468,2.265c-1.399,1.399-2.265,3.332-2.265,5.468  c0,2.136,0.866,4.069,2.265,5.468c1.399,1.399,3.332,2.265,5.468,2.265c2.135,0,4.069-0.865,5.468-2.265  c1.399-1.399,2.265-3.332,2.265-5.468C55.732,23.21,54.867,21.277,53.468,19.878L53.468,19.878z M32.73,19.878  c-1.399-1.399-3.332-2.265-5.468-2.265c-2.135,0-4.069,0.866-5.468,2.265c-1.399,1.399-2.265,3.332-2.265,5.468  c0,2.136,0.866,4.069,2.265,5.468c1.399,1.399,3.332,2.265,5.468,2.265c2.136,0,4.069-0.865,5.468-2.265  c1.399-1.399,2.265-3.332,2.265-5.468C34.995,23.21,34.129,21.277,32.73,19.878L32.73,19.878z M29.082,34.596h-3.639v0.874  c0,0.5,0.205,0.954,0.535,1.284c0.33,0.33,0.785,0.535,1.284,0.535c0.5,0,0.955-0.205,1.285-0.535  c0.33-0.33,0.535-0.785,0.535-1.284V34.596z"/><text x="0" y="111" fill="#000000" font-size="5px" font-weight="bold" font-family="'Helvetica Neue', Helvetica, Arial-Unicode, Arial, Sans-serif">Created by Dava Arya Ditya</text><text x="0" y="116" fill="#000000" font-size="5px" font-weight="bold" font-family="'Helvetica Neue', Helvetica, Arial-Unicode, Arial, Sans-serif">from the Noun Project</text></svg>