<svg xmlns="http://www.w3.org/2000/svg" viewBox="0 0 100 125" x="0px" y="0px"><title>Artboard 2 copy 2Animal</title><g data-name="Layer 23"><path d="M76.05,68a19.21,19.21,0,0,0-1.76-2.9c-1.37-2-2.93-4.3-2.64-6.34,1.58-12.83-5.4-25.66-6.84-27.65-.24-.34-.5-.66-.76-1-.21-3.38,1.38-4.73,1.4-4.75a18.18,18.18,0,0,0,3.15-2.5.89.89,0,0,0,.22-.78.87.87,0,0,0-.53-.63c-3.4-1.4-7.1,0-9.09.73a9.58,9.58,0,0,1-1.18.4,11.71,11.71,0,0,1-3.52-.26,34.74,34.74,0,0,0-16-3.79,12.55,12.55,0,0,0-8.85,3.63l-1.23,1.22a4.73,4.73,0,0,0-1.41,3.06.67.67,0,0,1-.46.59l-2.76,1.35a2,2,0,0,0-1.08,2.28.94.94,0,0,0,1.08.79c1-.16,1.91-.27,2.87-.34a31.4,31.4,0,0,1,14.17,4.77,18,18,0,0,0,5.31,5.63,1.14,1.14,0,0,0,.11.11.43.43,0,0,0,.16.09,35.15,35.15,0,0,0,5.15,3l.09.06.06,0c.62.3,1.26.59,1.94.89a1,1,0,0,0,.41.09,1,1,0,0,0,.54-1.87,16.86,16.86,0,0,1-1.8-1.61,37.71,37.71,0,0,1,5.34,4.2,23.31,23.31,0,0,1,4.74,6A41.08,41.08,0,0,1,66,59.19a7.21,7.21,0,0,1-3.65,4.6c-2,1.59-4,5.86-3.76,10.65a.5.5,0,0,0,.92.25l.4-.63a.38.38,0,0,0,.13-.15c.12-.21.25-.41.38-.62,2-3,2.89-3.66,3.89-3.77l.89-.09a2.89,2.89,0,0,0,1.49-.37l0,.06a3,3,0,0,0,.74.72l.35.2a7.55,7.55,0,0,1,3.51,3.64,42.57,42.57,0,0,1,1.55,4.07c.68,2,1.08,3.15,1.61,3.57a.72.72,0,0,0,.45.16,1,1,0,0,0,.51-.18C76.75,80.35,78.54,74.69,76.05,68ZM61.61,69.72a.21.21,0,0,1,0,.06l.06-.15,0,0A.46.46,0,0,0,61.61,69.72Zm-.52-46.64h0a1,1,0,0,1,.25-.07.41.41,0,0,0,.23-.1,9.12,9.12,0,0,1,1.83-.47,9.29,9.29,0,0,1,3.89.28,22.83,22.83,0,0,1-2.42,1.82,5.41,5.41,0,0,0-1.53,2.61,5,5,0,0,0-1.15-1.53,13.79,13.79,0,0,1-1.44-1.19A.84.84,0,0,1,61.09,23.08Zm-1.3,1.66a.36.36,0,0,0,0,.09l-.06,0S59.78,24.76,59.79,24.74ZM75.14,80.16c-.45-3.06-1.11-6.22-2.9-8.81a7.84,7.84,0,0,0-.5-.64A5.82,5.82,0,0,0,70.17,69,10.25,10.25,0,0,0,69,68.29,6.82,6.82,0,0,1,67.52,67a7.7,7.7,0,0,1-1.07-2.53.41.41,0,0,0-.35-.33.4.4,0,0,0-.26-.1.47.47,0,0,0-.52.48,7.79,7.79,0,0,0,.54,3,.52.52,0,0,0-.07.2c-.08.44-1.16.29-1.45.28s-.49,0-.73-.07a1,1,0,0,1-.48-.67c-.2-.9.5-1.73,1-2.36a14.91,14.91,0,0,0,2.65-4.37.41.41,0,0,0,0-.41,5.91,5.91,0,0,0,.24-.89v0s0-.06,0-.09V59A38.81,38.81,0,0,0,47.58,34.47h0l-.08,0-.11,0h-.08a.18.18,0,0,0-.1,0h0a1,1,0,0,0-.65.88c-.23,2.38,7.25,9.18,7.59,9.44q-1-.44-1.89-.87h0a22.37,22.37,0,0,1-6.15-5.1,8.19,8.19,0,0,1-2-7,.5.5,0,0,0-1-.27,6.4,6.4,0,0,0-.45,1.6.4.4,0,0,0,0,.22h0a7.8,7.8,0,0,0,.77,4.3,9.88,9.88,0,0,1-2.54-4.78,1,1,0,0,1,.6-1.07.9.9,0,0,0,.22-.11A1,1,0,0,0,42,30.43c-.57-1.21-3.55-2.54-4.14-2.79a.49.49,0,0,0-.65.26.5.5,0,0,0,.26.66c1.32.57,3.33,1.65,3.62,2.3l-.12.06a2,2,0,0,0-.77.61A38.53,38.53,0,0,0,29.54,30c-1,0-1.95,0-2.83.09h0c-1,.07-1.94.18-3,.34a.43.43,0,0,1,0-.05.81.81,0,0,1,0-.41c.42,0,3-.29,3.81-.51a11.89,11.89,0,0,0,1.33-.54,11.15,11.15,0,0,1,2.36-.88.5.5,0,0,0,0-1,9.13,9.13,0,0,0-2.76,1c-.49.22-1,.44-1.19.5-.37.09-1.24.21-2.08.31L27,28a1.66,1.66,0,0,0,1.07-1.45,3.69,3.69,0,0,1,1.11-2.41l1.23-1.22a11.58,11.58,0,0,1,8.15-3.34,33.67,33.67,0,0,1,15.88,3.88l.66.37.84.49.56.35,1,.67.35.24c.45.33.88.67,1.31,1l.19.17c.35.29.7.59,1,.9l.42.4c.25.23.49.47.72.71l.49.51c.2.22.39.44.58.67l.49.57c.32.4.64.79.93,1.2,1.4,1.95,8.2,14.44,6.66,26.94-.35,2.42,1.33,4.87,2.81,7a18.58,18.58,0,0,1,1.66,2.71C77.3,74.2,76,78.89,75.14,80.16Z"/></g><text x="0" y="115" fill="#000000" font-size="5px" font-weight="bold" font-family="'Helvetica Neue', Helvetica, Arial-Unicode, Arial, Sans-serif">Created by ALFA WORKS</text><text x="0" y="120" fill="#000000" font-size="5px" font-weight="bold" font-family="'Helvetica Neue', Helvetica, Arial-Unicode, Arial, Sans-serif">from the Noun Project</text></svg>