<svg xmlns="http://www.w3.org/2000/svg" xmlns:xlink="http://www.w3.org/1999/xlink" version="1.1" x="0px" y="0px" viewBox="0 0 48 60" enable-background="new 0 0 48 48" xml:space="preserve"><path d="M41.791,2.284L31.049,8.162c-0.117,0.064-0.204,0.173-0.241,0.302l-2.355,8.306H17.256l-2.293-7.63l3.044-0.915  c0.013-0.003,0.025-0.008,0.038-0.012l4.811-1.444c0.206-0.063,0.349-0.249,0.356-0.463c0.006-0.216-0.125-0.41-0.327-0.485  L12.623,2.031c-0.013-0.005-0.026-0.009-0.04-0.013c0,0,0,0-0.001,0c-0.004-0.001-0.009,0-0.014,0  c-0.005-0.001-0.009-0.005-0.014-0.006c-0.07-0.016-0.139-0.015-0.205,0c-0.003,0-0.006-0.002-0.009,0c-0.001,0-0.002,0-0.002,0  s-0.001,0-0.003,0l0,0c-0.021,0.004-0.041,0.01-0.062,0.017h-0.001l0,0h-0.001H12.27c-0.002,0-0.001,0.001-0.002,0l0,0  c-0.012,0.007-0.019,0.019-0.03,0.023c-0.073,0.034-0.14,0.081-0.19,0.146c-0.002,0.003-0.006,0.004-0.008,0.007l-6.474,8.817  c-0.127,0.173-0.13,0.409-0.006,0.584c0.125,0.175,0.346,0.251,0.553,0.189l7.892-2.372l2.207,7.343h-5.597  c-0.225,0-0.422,0.149-0.482,0.365c-0.06,0.217,0.032,0.446,0.224,0.563c6.092,3.667,11.396,8.728,15.35,14.64v12.664h-4.858  c-0.276,0-0.5,0.224-0.5,0.5c0,0.275,0.224,0.5,0.5,0.5h10.717c0.275,0,0.5-0.225,0.5-0.5c0-0.276-0.225-0.5-0.5-0.5h-4.858V32.335  c3.954-5.911,9.258-10.972,15.35-14.639c0.192-0.116,0.284-0.346,0.224-0.563c-0.06-0.216-0.256-0.365-0.481-0.365H29.491  l2.222-7.83l10.558-5.777c0.242-0.132,0.332-0.436,0.198-0.679C42.336,2.239,42.032,2.151,41.791,2.284z M21.135,6.239l-3.117,0.937  l-3.51-3.383L21.135,6.239z M11.438,4.715l-1.063,4.759L7.257,10.41L11.438,4.715z M11.473,9.144l1.043-4.671l1.201,3.995  L11.473,9.144z M13.474,4.186l3.445,3.32l-2.244,0.676L13.474,4.186z M26.207,31.283c-3.668-5.34-8.423-9.976-13.853-13.515H40.06  C34.63,21.308,29.876,25.943,26.207,31.283z"/><text x="0" y="63" fill="#000000" font-size="5px" font-weight="bold" font-family="'Helvetica Neue', Helvetica, Arial-Unicode, Arial, Sans-serif">Created by Kieu Thi Kim Cuong</text><text x="0" y="68" fill="#000000" font-size="5px" font-weight="bold" font-family="'Helvetica Neue', Helvetica, Arial-Unicode, Arial, Sans-serif">from the Noun Project</text></svg>