<svg xmlns="http://www.w3.org/2000/svg" version="1.1" viewBox="-5.0 -10.0 110.0 135.0">
 <g>
  <path d="m61.066 77.141 5.5703 15.406 16.148-28.879 1.3008-2.543-15.938 4.1367c-0.0625-3.3594-1.2891-6.8281-3.4062-10.051l2.6758-2.0391c0.32812-0.25 0.40625-0.71875 0.17188-1.0586-0.10547-0.15625-2.6758-3.8906-7.3477-7.4375-4.7344-3.5977-9.7344-4.2969-9.9453-4.3242-0.15234-0.023437-0.30469 0.003907-0.44531 0.070313l-5.1016 2.4922c-3.207-0.25781-6.0391 0.082032-7.9375 0.44531-5.2148 1.0039-9.7852 3.3633-11.113 5.7344-0.44922 0.80469-0.71094 1.8945-0.79297 3.168-0.76562-0.47656-1.3359-1.2266-1.7148-2.2734-0.25-0.69531-0.37891-1.5156-0.37891-2.4297v-4.3945h0.55469c1.0742 0 1.9453-0.875 1.9453-1.9453 0-0.51172-0.20312-0.97266-0.52344-1.3203 0.32422-0.34766 0.52344-0.80859 0.52344-1.3203 0-0.4375-0.15234-0.83984-0.39844-1.168 0.24609-0.32812 0.39844-0.72656 0.39844-1.168 0-0.47656-0.17969-0.91016-0.46875-1.25 0.28906-0.33984 0.46875-0.77344 0.46875-1.25 0-1.0742-0.875-1.9453-1.9453-1.9453h-0.55469v-0.17969c0-0.96875-0.63281-1.7852-1.5-2.0781v-7.543c2.2656-0.375 4-2.332 4-4.7031 0-2.3672-1.7383-4.3281-4-4.7031v-4.9258h-1.5586v4.9297c-2.2656 0.375-4 2.332-4 4.7031s1.7383 4.3281 4 4.7031v7.5938c-0.79297 0.33594-1.3555 1.1211-1.3555 2.0352v0.17969h-0.1875c-1.0742 0-1.9453 0.875-1.9453 1.9453 0 0.47656 0.17969 0.91016 0.46875 1.25-0.28906 0.33984-0.46875 0.77344-0.46875 1.25 0 0.4375 0.15234 0.83984 0.39844 1.168-0.24609 0.32812-0.39844 0.72656-0.39844 1.168 0 0.51172 0.20312 0.97266 0.52344 1.3203-0.32422 0.34766-0.52344 0.80859-0.52344 1.3203 0 1.0742 0.875 1.9453 1.9453 1.9453h0.1875v4.3945c0 1.4258 0.21484 2.7461 0.64062 3.9258 1.1094 3.0781 3.3047 4.9961 6.2578 5.5977 0.28906 1.4609 0.73047 2.9922 1.3125 4.5273 1.332 3.4961 4.5625 9.9219 11.254 13.664 2.1953 1.2266 4.4648 2.1602 6.7305 2.8125l5.2656 4.0391c1.3125 0.85938 2.375 1.2812 3.2539 1.2812 0.67969 0 1.2539-0.25781 1.7461-0.76562 0.5-0.51562 0.67188-1.1797 0.48047-1.8594-0.22266-0.78516-0.17188-1.4609-0.11719-1.8125 2.1094-0.30859 4.0898-0.91016 5.8438-1.8398zm-33-16.082c-0.5-1.3164-0.875-2.5859-1.1367-3.7773-0.12109-0.54297-0.21875-1.0703-0.29297-1.5781-0.066407-0.45312-0.11328-0.88672-0.14453-1.3047-0.042969-0.55859-0.0625-1.0898-0.050782-1.5781 0.03125-1.293 0.25391-2.3125 0.61328-2.9609 0.94531-1.6875 4.6992-3.9375 10.047-4.9688 0.49609-0.09375 1.0664-0.1875 1.6875-0.26953 1.5391 3.7031 1.3242 7.9336-0.63672 11.441-1.9688 3.5195-5.4727 5.918-9.4453 6.5391-0.25-0.55469-0.46484-1.0781-0.64062-1.543zm11.449-4.2305c2.1172-3.7891 2.4141-8.332 0.88281-12.367 3.6562-0.27344 8.5781 0.0625 13.211 2.6523 8.1289 4.543 13.336 12.227 12.961 19.121l-0.058593 1.0625 14.57-3.7812-14.137 25.289-5.0469-13.961-0.8125 0.5c-5.7773 3.5312-14.594 2.9688-22.457-1.4297-4.6523-2.6016-7.5234-6.6094-9.207-9.8516 4.2461-0.80469 7.9727-3.4375 10.094-7.2344zm10.797-14.895c0.99219 0.17578 5.1328 1.0547 8.9844 3.9844 3.3906 2.5781 5.6602 5.3047 6.5625 6.4805l-2.0195 1.5352c-2.3672-3.1641-5.6016-6.0234-9.4727-8.1875-2.2734-1.2734-4.6094-2.0273-6.8438-2.457zm-32.488-0.71094c0-0.21484 0.17188-0.38672 0.38672-0.38672h5.1562c0.21484 0 0.38672 0.17187 0.38672 0.38672s-0.17188 0.38672-0.38672 0.38672h-5.1562c-0.21484 0-0.38672-0.17188-0.38672-0.38672zm0-4.9727c0-0.21484 0.17188-0.38672 0.38672-0.38672h5.1562c0.21484 0 0.38672 0.17188 0.38672 0.38672s-0.17188 0.38672-0.38672 0.38672h-5.1562c-0.21484 0-0.38672-0.17188-0.38672-0.38672zm0.38672-2.8906h5.1562c0.21484 0 0.38672 0.17188 0.38672 0.38672s-0.17188 0.38672-0.38672 0.38672h-5.1562c-0.21484 0-0.38672-0.17187-0.38672-0.38672 0-0.21094 0.17188-0.38672 0.38672-0.38672zm0 4.8359h5.1562c0.21484 0 0.38672 0.17188 0.38672 0.38672 0 0.21484-0.17188 0.38672-0.38672 0.38672h-5.1562c-0.21484 0-0.38672-0.17188-0.38672-0.38672 0-0.21094 0.17188-0.38672 0.38672-0.38672zm1.543-24.02c0.25-0.0625 0.50781-0.10547 0.78125-0.10547 0.26953 0 0.52734 0.042969 0.78125 0.10547 1.3984 0.35156 2.4414 1.6094 2.4414 3.1172 0 1.5078-1.043 2.7656-2.4414 3.1172-0.25 0.0625-0.50781 0.10547-0.78125 0.10547-0.26953 0-0.52734-0.042969-0.78125-0.10547-1.3984-0.35156-2.4414-1.6094-2.4414-3.1172-0.003906-1.5078 1.043-2.7656 2.4414-3.1172zm0.20312 17.445c0-0.35547 0.28906-0.64844 0.64844-0.64844 0.35547 0 0.64844 0.28906 0.64844 0.64844v0.17969h-1.2969zm0.55078 19.34c-0.36328-1.0078-0.54687-2.1484-0.54687-3.3984v-4.3945h1.2969v4.3945c0 1.0938 0.15625 2.0898 0.47266 2.957 0.62109 1.7227 1.707 2.8906 3.1758 3.4805 0.023438 0.46484 0.066406 0.94531 0.12891 1.4414-2.1367-0.60938-3.6797-2.1289-4.5273-4.4805zm33.332 30.246c0.035156 0.12891 0.03125 0.21875-0.097656 0.35156-0.23828 0.24219-0.73438 0.75781-2.9805-0.70312l-2.5664-1.9688c1.8594 0.28516 3.6875 0.37109 5.4414 0.25-0.042969 0.53125-0.027344 1.2617 0.20312 2.0703z"/>
  <path d="m66.844 70.258 7.9766 0.34375h0.035157c0.41406 0 0.76172-0.32812 0.77734-0.74609 0.019532-0.42969-0.31641-0.79297-0.74609-0.8125l-7.9766-0.34375c-0.44922-0.019531-0.79297 0.3125-0.8125 0.74609-0.019531 0.43359 0.31641 0.79688 0.74609 0.8125z"/>
  <path d="m67.898 81.547c0.15234 0.22266 0.39844 0.34375 0.64844 0.34375 0.14844 0 0.30078-0.042969 0.4375-0.13281 0.35547-0.24219 0.44922-0.72656 0.21094-1.082l-4.4727-6.6172c-0.24219-0.35547-0.72656-0.44922-1.082-0.21094-0.35547 0.24219-0.44922 0.72656-0.21094 1.082z"/>
  <path d="m65.039 72.766 6.6602 3.7227c0.12109 0.066407 0.25 0.097657 0.37891 0.097657 0.27344 0 0.53906-0.14453 0.67969-0.39844 0.21094-0.375 0.078126-0.85156-0.30078-1.0625l-6.6602-3.7227c-0.375-0.21094-0.85156-0.074219-1.0625 0.30078-0.20703 0.37891-0.070313 0.85547 0.30469 1.0625z"/>
  <path d="m42.242 67.777c0.15234 0.19922 0.38281 0.30469 0.61719 0.30469 0.14844 0 0.30078-0.042969 0.43359-0.13281 7.6328-5.1172 9.1172-12.895 8.2109-15.922-0.36328-1.2188-1.0625-1.4102-1.4453-1.4141h-0.027344c-1.4531 0-7.0547 1.1133-7.6953 1.2383-0.42188 0.085938-0.69531 0.49609-0.60938 0.91797 0.050782 0.25 0.21875 0.4375 0.43359 0.53906 0.14844 0.070312 0.3125 0.10547 0.48438 0.074218 1.6328-0.32812 5.9727-1.1484 7.2539-1.207 0.15625 0.27344 0.375 1.1406 0.23047 2.6172-0.16016 1.6289-1.1406 7.1445-7.1016 11.445l-4.0938-5.332c-0.078125-0.10156-0.17969-0.17188-0.28516-0.22266-0.25391-0.12109-0.56641-0.10547-0.80469 0.078125-0.34375 0.26172-0.40625 0.75-0.14453 1.0938z"/>
  <path d="m34.961 51.047 1.3477-1.2422c0.31641-0.29297 0.33594-0.78516 0.046875-1.1016-0.29297-0.31641-0.78516-0.33594-1.1016-0.046875l-1.3477 1.2422-1.2422-1.3477c-0.29297-0.31641-0.78516-0.33594-1.1016-0.046875-0.31641 0.29297-0.33594 0.78516-0.046875 1.1016l1.2422 1.3477-1.3477 1.2422c-0.31641 0.29297-0.33594 0.78516-0.046875 1.1016 0.15234 0.16797 0.36328 0.25 0.57422 0.25 0.1875 0 0.37891-0.070313 0.52734-0.20703l1.3477-1.2422 1.2422 1.3477c0.15234 0.16797 0.36328 0.25 0.57422 0.25 0.1875 0 0.37891-0.070312 0.52734-0.20703 0.31641-0.29297 0.33594-0.78516 0.046875-1.1016z"/>
 </g>
<text x="0.0" y="117.5" font-size="5.0" font-weight="bold" font-family="Arbeit Regular, Helvetica, Arial-Unicode, Arial, Sans-serif" fill="#000000">Created by chonri510</text><text x="0.0" y="122.5" font-size="5.0" font-weight="bold" font-family="Arbeit Regular, Helvetica, Arial-Unicode, Arial, Sans-serif" fill="#000000">from Noun Project</text></svg>