<svg xmlns="http://www.w3.org/2000/svg" data-name="레이어 1" viewBox="0 0 64 80" x="0px" y="0px"><title>대지 154 사본 19</title><path d="M54.38,53.5H9.62a1.55,1.55,0,0,1-.52-.1c-.84-.36-3.6-1.68-3.6-3.81s2.76-3.45,3.6-3.8a1.35,1.35,0,0,1,.52-.11H54.38a1.35,1.35,0,0,1,.52.11c.84.35,3.6,1.67,3.6,3.8S55.74,53,54.9,53.4a1.55,1.55,0,0,1-.52.1M9.91,50.89H54.09a4.25,4.25,0,0,0,1.76-1.3,4.34,4.34,0,0,0-1.76-1.3H9.91a4,4,0,0,0-1.77,1.33,4.62,4.62,0,0,0,1.77,1.27"/><path d="M36.69,15l-1-.22c0-.11,0-.22,0-.33a3.72,3.72,0,1,0-7.44,0,2.11,2.11,0,0,0,0,.36l-1,.22C16.59,17.52,8.8,28.61,8.8,41.31c0,.63,0,1.29.1,1.89a1.32,1.32,0,0,0,1.32,1.18H53.79a1.32,1.32,0,0,0,1.31-1.17c.06-.61.1-1.27.1-1.9,0-12.7-7.79-23.79-18.51-26.35m-5.77-.58a1.09,1.09,0,1,1,2.16,0v0a5.49,5.49,0,0,0-1.08-.1,5.57,5.57,0,0,0-1.08.1ZM52.54,41.77H11.45v-.46c0-11.52,6.93-21.53,16.49-23.82a17.68,17.68,0,0,1,8.12,0c9.56,2.29,16.49,12.3,16.49,23.82,0,.14,0,.31,0,.46"/><path d="M47.92,36.56a1.32,1.32,0,0,1-1.28-1c-1.41-5.59-4.77-10-9.21-12.17a1.3,1.3,0,0,1-.61-1.75,1.33,1.33,0,0,1,1.77-.59c5.15,2.48,9,7.54,10.62,13.88a1.31,1.31,0,0,1-1,1.58,1.17,1.17,0,0,1-.32,0"/><text x="0" y="79" fill="#000000" font-size="5px" font-weight="bold" font-family="'Helvetica Neue', Helvetica, Arial-Unicode, Arial, Sans-serif">Created by YongD</text><text x="0" y="84" fill="#000000" font-size="5px" font-weight="bold" font-family="'Helvetica Neue', Helvetica, Arial-Unicode, Arial, Sans-serif">from the Noun Project</text></svg>