<svg xmlns="http://www.w3.org/2000/svg" version="1.1" viewBox="-5.0 -10.0 110.0 135.0">
 <path d="m53.008 88.891h29.148c2.4062 0 4.3672-1.9609 4.3672-4.3672v-39.219c0-1.6016-0.60547-3.1172-1.7109-4.2656-6.1172-6.375-7.2266-23.359-7.2344-23.477 0-5.3516-4.3516-9.7031-9.7031-9.7031-1.4258 0-2.7109 0.3125-3.8516 0.85156-11.258 4.6172-26.312 0.31641-27.094 0.085937-1.2578-0.59766-2.6562-0.9375-4.1367-0.9375-5.3516 0-9.7031 4.3516-9.7031 9.6523-0.011719 0.16406-1.082 16.586-6.9336 23.203-1.2969 1.4688-2.0117 3.4375-2.0117 5.5547v38.457c0 2.293 1.8672 4.1602 4.1602 4.1602h29.355zm31.816-4.3672c0 1.4688-1.1953 2.6641-2.6641 2.6641h-30.969v-7.4688h5.4414c1.6211 0 2.9766-1.1094 3.3789-2.6094h21.762c1.168 0 2.2227-0.4375 3.0508-1.1406zm-65.93-9.1172c-1.6797 0-3.0508-1.3672-3.0508-3.0508 0-1.6797 1.3672-3.0508 3.0508-3.0508h22.297v6.1016zm-3.0508-19.52c0.82812 0.69922 1.8828 1.1406 3.0508 1.1406h22.793c0.61328 1.0352 1.7266 1.7383 3.0156 1.7383h4.7891v6.2344h-4.7891c-1.6211 0-2.9766 1.1094-3.3789 2.6094l-22.43-0.003906c-1.168 0-2.2227 0.4375-3.0508 1.1406zm33.648-25.184c-0.34375-0.25781-0.57031-0.66797-0.57031-1.1328 0-0.46484 0.22656-0.87109 0.57031-1.1328 0.23828-0.17969 0.53125-0.28906 0.85156-0.28906s0.61328 0.10937 0.85156 0.28906c0.34375 0.25781 0.57031 0.66797 0.57031 1.1328 0 0.46484-0.22656 0.875-0.57031 1.1328-0.23828 0.17969-0.53125 0.28906-0.85156 0.28906-0.32422 0-0.61719-0.10938-0.85156-0.28906zm0 9.0703c-0.34375-0.25781-0.57031-0.66797-0.57031-1.1328s0.22656-0.875 0.57031-1.1328c0.23828-0.17969 0.53125-0.28906 0.85156-0.28906s0.61328 0.10938 0.85156 0.28906c0.34375 0.25781 0.57031 0.66797 0.57031 1.1328s-0.22656 0.875-0.57031 1.1328c-0.23828 0.17969-0.53125 0.28906-0.85156 0.28906-0.32422 0-0.61719-0.10938-0.85156-0.28906zm32.281 9.4531c1.6797 0 3.0508 1.3672 3.0508 3.0508 0 1.6797-1.3672 3.0469-3.0508 3.0469h-21.637c0-0.023438 0.007812-0.046875 0.007812-0.070313v-6.0273zm3.0508 19.52c-0.82812-0.69922-1.8828-1.1406-3.0508-1.1406h-21.762c-0.40234-1.4961-1.7578-2.6094-3.3789-2.6094h-5.4414v-6.2344h5.4414c1.2891 0 2.4023-0.70312 3.0156-1.7383h22.125c1.168 0 2.2227-0.4375 3.0508-1.1406zm-41.934 7.4609v-7.6953c0-0.33203 0.09375-0.63672 0.25-0.90234 0.3125-0.53906 0.89062-0.90625 1.5586-0.90625h11.934c0.66797 0 1.2461 0.36719 1.5586 0.90625 0.15625 0.26562 0.25 0.57422 0.25 0.90234v7.6953c0 0.33203-0.09375 0.63672-0.25 0.90234-0.3125 0.53906-0.89062 0.90625-1.5586 0.90625h-11.934c-0.66797 0-1.2461-0.36719-1.5586-0.90625-0.15234-0.26562-0.25-0.57422-0.25-0.90234zm17.254-6.8984h21.629c1.6797 0 3.0508 1.3672 3.0508 3.0508 0 1.6797-1.3672 3.0508-3.0508 3.0508l-21.629-0.003906zm-17.254-21.75c0-0.011719 0.003906-0.023438 0.003906-0.03125 0.019531-0.98438 0.82031-1.7773 1.8086-1.7773h11.934c0.98828 0 1.7891 0.79688 1.8086 1.7773 0 0.011718 0.003907 0.023437 0.003907 0.03125v7.6953c0 0.023438-0.007813 0.046875-0.007813 0.070313-0.035156 0.83984-0.63672 1.5352-1.4336 1.7031-0.11719 0.023437-0.24219 0.039062-0.36719 0.039062h-11.934c-0.125 0-0.25-0.011718-0.36719-0.039062-0.80078-0.16406-1.4023-0.86328-1.4336-1.7031 0-0.023438-0.007812-0.046875-0.007812-0.070313v-6.0273zm-1.6914 7.7656h-22.305c-1.6797 0-3.0508-1.3672-3.0508-3.0508 0-1.6797 1.3672-3.0469 3.0508-3.0469h22.297v6.0273c0 0.023438 0.003906 0.046875 0.007813 0.070313zm34.68-37.707c0.042969 0.72266 1.1602 17.781 7.707 24.605 0.79687 0.82812 1.2344 1.9258 1.2344 3.0859v3.3555c-0.82812-0.69922-1.8828-1.1406-3.0508-1.1406h-21.629c-0.019531-1.9219-1.582-3.4766-3.5078-3.4766h-5.4414v-2.4141c1.3086-0.375 2.2734-1.5664 2.2734-2.9922s-0.96484-2.6172-2.2734-2.9922v-3.0859c1.3086-0.375 2.2734-1.5664 2.2734-2.9922 0-1.4258-0.96484-2.6172-2.2734-2.9922v-3.7188h3.0312c3.1172 0 5.6562-2.4141 5.6719-5.3867 0.54297-3.9648 3.4219-7.918 7.9805-7.918 4.4141 0.003906 8.0039 3.5977 8.0039 8.0625zm-24.215-5.043c2.8711 0 5.9023-0.26562 8.8516-0.96484-1.293 1.6953-2.0938 3.7812-2.3398 5.8555h0.015625c-0.011718 2.0391-1.7891 3.6953-3.9727 3.6953h-7.7617c-2.1602 0-3.918-1.625-3.9648-3.6328-0.007813-2.3438-0.85156-4.4961-2.25-6.1719 2.8281 0.58203 6.9336 1.2188 11.422 1.2188zm-35.82 33.695c0-1.7031 0.5625-3.2734 1.5859-4.4297 6.2422-7.0547 7.3164-23.527 7.3594-24.277 0-4.4141 3.5898-8.0039 8.0039-8.0039 4.375 0 7.9336 3.5273 7.9961 7.8867h-0.003906c0 2.9883 2.5469 5.418 5.6758 5.418h3.0312v3.7188c-1.3086 0.375-2.2734 1.5664-2.2734 2.9922s0.96484 2.6172 2.2734 2.9922v3.0859c-1.3086 0.375-2.2734 1.5664-2.2734 2.9922s0.96484 2.6172 2.2734 2.9922v2.4141h-4.7891c-1.9258 0-3.4922 1.5586-3.5078 3.4766l-22.301-0.003906c-1.168 0-2.2227 0.4375-3.0508 1.1406zm2.4609 40.918c-1.3555 0-2.4609-1.1016-2.4609-2.4609v-8.7578c0.82812 0.69922 1.8828 1.1406 3.0508 1.1406h22.43c0.40234 1.4961 1.7578 2.6094 3.3789 2.6094h4.7891v7.4688z"/>
<text x="0.0" y="117.5" font-size="5.0" font-weight="bold" font-family="Arbeit Regular, Helvetica, Arial-Unicode, Arial, Sans-serif" fill="#000000">Created by yangjinkyu</text><text x="0.0" y="122.5" font-size="5.0" font-weight="bold" font-family="Arbeit Regular, Helvetica, Arial-Unicode, Arial, Sans-serif" fill="#000000">from Noun Project</text></svg>