<?xml version="1.0" encoding="UTF-8"?>
<svg id="Layer_1" data-name="Layer 1" xmlns="http://www.w3.org/2000/svg" version="1.1" viewBox="0 0 155 34">
  <defs>
    <style>
      .cls-1 {
        fill: #0086ff;
      }

      .cls-1, .cls-2 {
        stroke-width: 0px;
      }

      .cls-2 {
        fill: #172041;
      }
    </style>
  </defs>
  <g>
    <path class="cls-2" d="M53.1,24.3c-.9-.5-1.6-1.2-2.1-2.1s-.8-1.9-.8-3,.3-2.1.8-3c.5-.9,1.2-1.6,2.1-2.1.9-.5,1.9-.7,2.9-.7s2,.2,2.9.7c.9.5,1.6,1.2,2.1,2.1.5.9.8,1.9.8,3s-.3,2.1-.8,3-1.2,1.6-2.1,2.1-1.8.7-2.9.7-2-.2-2.9-.7ZM58.2,21.7c.5-.6.8-1.4.8-2.4s-.3-1.8-.8-2.4c-.5-.6-1.3-.9-2.2-.9s-1.6.3-2.2.9c-.5.6-.8,1.4-.8,2.4s.3,1.8.8,2.4c.5.6,1.3.9,2.2.9s1.6-.3,2.2-.9Z"/>
    <path class="cls-2" d="M62.6,18c.4-.7.9-1.2,1.6-1.6.7-.4,1.5-.6,2.3-.6s2.1.3,2.8.9c.8.6,1.3,1.4,1.5,2.5h-2.9c-.2-.7-.7-1-1.4-1s-.9.2-1.2.6c-.3.4-.5,1-.5,1.7s.1,1.3.5,1.7c.3.4.7.6,1.2.6s1.2-.3,1.4-1h2.9c-.2,1.1-.7,1.9-1.5,2.5-.8.6-1.7.9-2.8.9s-1.7-.2-2.3-.6c-.7-.4-1.2-.9-1.6-1.6-.4-.7-.6-1.5-.6-2.4s.2-1.7.6-2.4Z"/>
    <path class="cls-2" d="M79.9,21.1h-6.2c0,.6.2,1,.5,1.3.3.3.7.4,1.2.4.7,0,1.2-.3,1.4-.9h2.9c-.2.6-.4,1.1-.8,1.6-.4.5-.9.8-1.5,1.1-.6.3-1.2.4-2,.4s-1.7-.2-2.3-.6c-.7-.4-1.2-.9-1.6-1.6-.4-.7-.6-1.5-.6-2.4s.2-1.7.6-2.4c.4-.7.9-1.2,1.6-1.6.7-.4,1.5-.6,2.4-.6s1.6.2,2.3.5c.7.4,1.2.9,1.6,1.6.4.7.6,1.5.6,2.4s0,.5,0,.8ZM77.1,19.6c0-.5-.2-.8-.5-1.1s-.7-.4-1.2-.4-.8.1-1.2.4c-.3.3-.5.6-.6,1.1h3.4Z"/>
    <path class="cls-2" d="M80.6,18c.3-.7.8-1.2,1.4-1.6.6-.4,1.3-.6,2-.6s1.2.1,1.7.4c.5.3.8.6,1.1,1v-1.3h2.7v9h-2.7v-1.3c-.3.4-.6.8-1.1,1-.5.3-1,.4-1.7.4s-1.4-.2-2-.6c-.6-.4-1.1-.9-1.4-1.6-.3-.7-.5-1.5-.5-2.4s.2-1.7.5-2.4ZM86.2,18.9c-.4-.4-.8-.6-1.4-.6s-1,.2-1.4.6c-.4.4-.6.9-.6,1.6s.2,1.2.6,1.6c.4.4.8.6,1.4.6s1-.2,1.4-.6c.4-.4.6-.9.6-1.6s-.2-1.2-.6-1.6Z"/>
    <path class="cls-2" d="M98.7,16.9c.6.7.9,1.6.9,2.8v5.2h-2.7v-4.9c0-.6-.2-1.1-.5-1.4-.3-.3-.7-.5-1.3-.5s-.9.2-1.3.5c-.3.3-.5.8-.5,1.4v4.9h-2.7v-9h2.7v1.2c.3-.4.7-.7,1.1-.9.5-.2,1-.3,1.6-.3,1.1,0,1.9.3,2.5,1Z"/>
    <path class="cls-1" d="M105.9,24.7c-.6-.3-1-.6-1.4-1.1-.3-.5-.5-1-.5-1.6h1.6c0,.5.3,1,.7,1.3.4.4.9.5,1.7.5s1.2-.2,1.6-.5c.4-.3.6-.8.6-1.3s-.1-.8-.4-1c-.2-.3-.5-.5-.9-.6s-.8-.3-1.4-.5c-.7-.2-1.3-.4-1.8-.6-.4-.2-.8-.5-1.1-.9-.3-.4-.5-1-.5-1.7s.2-1.2.5-1.6c.3-.5.7-.8,1.3-1.1.6-.3,1.2-.4,1.9-.4,1.1,0,1.9.3,2.6.8.7.5,1,1.2,1.1,2.1h-1.6c0-.4-.3-.8-.7-1.1s-.9-.5-1.6-.5-1.1.2-1.5.5c-.4.3-.6.8-.6,1.3s.1.7.3,1c.2.3.5.5.9.6.3.1.8.3,1.4.5.7.2,1.3.4,1.8.6.5.2.8.5,1.2.9.3.4.5,1,.5,1.7s-.1,1.1-.4,1.5c-.3.5-.7.9-1.3,1.2-.6.3-1.2.5-2,.5s-1.4-.1-2-.4Z"/>
    <path class="cls-1" d="M113,18.2c.4-.7.9-1.2,1.5-1.6.6-.4,1.3-.6,2.1-.6s1.4.2,2,.5c.6.3,1,.8,1.3,1.3v-1.6h1.5v8.8h-1.5v-1.6c-.3.5-.7.9-1.3,1.3s-1.2.5-2,.5-1.5-.2-2.1-.6c-.6-.4-1.1-.9-1.5-1.6-.4-.7-.5-1.5-.5-2.4s.2-1.7.5-2.4ZM119.5,18.8c-.3-.5-.6-.9-1.1-1.1-.5-.3-1-.4-1.5-.4s-1,.1-1.5.4c-.5.3-.8.6-1.1,1.1-.3.5-.4,1.1-.4,1.7s.1,1.3.4,1.8c.3.5.6.9,1.1,1.1.5.3.9.4,1.5.4s1-.1,1.5-.4c.5-.3.8-.6,1.1-1.1.3-.5.4-1.1.4-1.7s-.1-1.2-.4-1.7Z"/>
    <path class="cls-1" d="M126.6,17.4h-1.8v7.6h-1.5v-7.6h-1.1v-1.2h1.1v-.6c0-1,.3-1.7.8-2.2.5-.5,1.3-.7,2.5-.7v1.2c-.6,0-1.1.1-1.4.4s-.4.7-.4,1.2v.6h1.8v1.2Z"/>
    <path class="cls-1" d="M127.5,18.2c.4-.7.9-1.2,1.5-1.6.6-.4,1.3-.6,2.1-.6s1.4.2,2,.5c.6.3,1,.8,1.3,1.3v-1.6h1.5v8.8h-1.5v-1.6c-.3.5-.7.9-1.3,1.3s-1.2.5-2,.5-1.5-.2-2.1-.6c-.6-.4-1.1-.9-1.5-1.6-.4-.7-.5-1.5-.5-2.4s.2-1.7.5-2.4ZM134,18.8c-.3-.5-.6-.9-1.1-1.1-.5-.3-1-.4-1.5-.4s-1,.1-1.5.4c-.5.3-.8.6-1.1,1.1-.3.5-.4,1.1-.4,1.7s.1,1.3.4,1.8c.3.5.6.9,1.1,1.1.5.3.9.4,1.5.4s1-.1,1.5-.4c.5-.3.8-.6,1.1-1.1.3-.5.4-1.1.4-1.7s-.1-1.2-.4-1.7Z"/>
    <path class="cls-1" d="M140.1,16.4c.5-.3,1.1-.4,1.7-.4v1.5h-.4c-1.6,0-2.5.9-2.5,2.7v4.8h-1.5v-8.8h1.5v1.4c.3-.5.6-.9,1.1-1.2Z"/>
    <path class="cls-1" d="M142.8,14.4c-.2-.2-.3-.4-.3-.7s0-.5.3-.7.4-.3.7-.3.5,0,.7.3.3.4.3.7,0,.5-.3.7-.4.3-.7.3-.5,0-.7-.3ZM144.2,16.2v8.8h-1.5v-8.8h1.5Z"/>
    <path class="cls-1" d="M147.2,24.8c-.5-.2-1-.6-1.3-1s-.5-.9-.5-1.4h1.5c0,.4.2.8.6,1.1s.9.4,1.5.4,1-.1,1.3-.4c.3-.2.5-.6.5-.9s-.2-.7-.5-.9c-.3-.2-.9-.4-1.6-.6-.7-.2-1.2-.3-1.6-.5s-.8-.4-1.1-.8-.4-.8-.4-1.4.1-.9.4-1.2c.3-.4.6-.7,1.1-.9.5-.2,1.1-.3,1.7-.3,1,0,1.8.2,2.4.7.6.5.9,1.2,1,2h-1.5c0-.5-.2-.8-.6-1.1-.3-.3-.8-.4-1.4-.4s-.9.1-1.3.3c-.3.2-.5.5-.5.9s0,.5.3.7.4.3.7.5c.3.1.7.2,1.2.4.6.2,1.1.3,1.5.5.4.2.7.4,1,.7.3.3.4.8.4,1.3,0,.5-.1.9-.4,1.3-.3.4-.6.7-1.1.9s-1,.3-1.7.3-1.3-.1-1.8-.3Z"/>
  </g>
  <g>
    <path class="cls-2" d="M2,24c9-6.9,18.3-12.2,28-15.1l4.8,4.7c-8.6-.9-20.3,4.4-32.8,10.5Z"/>
    <path class="cls-2" d="M2,24.9c12.8-6.4,30.1-10.4,41.8-10.4l-3.6,8c-9.2-5.6-26.2-.5-38.2,2.5Z"/>
    <path class="cls-1" d="M4.3,25.1c12.3-.3,24-.4,34.8,0l1-2.2-35.8,2.2Z"/>
  </g>
</svg>