<?xml version="1.0" encoding="UTF-8"?>
<svg id="Layer_1" data-name="Layer 1" xmlns="http://www.w3.org/2000/svg" version="1.1" viewBox="0 0 13 14">
  <defs>
    <style>
      .cls-1 {
        fill: #0086ff;
      }

      .cls-1, .cls-2 {
        stroke-width: 0px;
      }

      .cls-2 {
        fill: #172041;
      }
    </style>
  </defs>
  <g>
    <path class="cls-2" d="M71.3,14.2c-1.1-.6-2-1.5-2.6-2.6s-1-2.3-1-3.7.3-2.6,1-3.7c.6-1.1,1.5-2,2.6-2.6,1.1-.6,2.3-.9,3.6-.9s2.5.3,3.6.9c1.1.6,2,1.5,2.6,2.6.6,1.1,1,2.3,1,3.7s-.3,2.6-1,3.7-1.5,2-2.6,2.6-2.3.9-3.6.9-2.5-.3-3.6-.9ZM77.7,10.9c.7-.7,1-1.7,1-3s-.3-2.2-1-3c-.7-.7-1.6-1.1-2.7-1.1s-2,.4-2.7,1.1c-.7.7-1,1.7-1,3s.3,2.2,1,3c.7.7,1.6,1.1,2.7,1.1s2-.4,2.7-1.1Z"/>
    <path class="cls-2" d="M83.1,6.3c.5-.9,1.1-1.5,2-2,.8-.5,1.8-.7,2.9-.7s2.6.4,3.5,1.1c.9.7,1.6,1.8,1.9,3.1h-3.6c-.3-.9-.9-1.3-1.8-1.3s-1.1.2-1.5.7c-.4.5-.6,1.2-.6,2.1s.2,1.6.6,2.1c.4.5.9.7,1.5.7s1.5-.4,1.8-1.3h3.6c-.3,1.3-.9,2.3-1.9,3.1-.9.7-2.1,1.1-3.5,1.1s-2.1-.2-2.9-.7c-.8-.5-1.5-1.1-2-2-.5-.9-.7-1.9-.7-3s.2-2.2.7-3Z"/>
    <path class="cls-2" d="M104.7,10.2h-7.8c0,.7.3,1.2.7,1.6.4.4.9.6,1.5.6.9,0,1.4-.4,1.8-1.1h3.6c-.2.7-.5,1.4-1,2-.5.6-1.1,1-1.8,1.4-.7.3-1.6.5-2.5.5s-2.1-.2-2.9-.7c-.9-.5-1.5-1.1-2-2-.5-.9-.7-1.9-.7-3s.2-2.2.7-3c.5-.9,1.1-1.5,2-2,.9-.5,1.8-.7,2.9-.7s2,.2,2.9.7c.8.5,1.5,1.1,2,1.9.5.8.7,1.8.7,2.9s0,.7,0,1ZM101.2,8.3c0-.6-.2-1.1-.6-1.4s-.9-.5-1.5-.5-1.1.2-1.5.5c-.4.3-.6.8-.7,1.4h4.3Z"/>
    <path class="cls-2" d="M105.5,6.3c.4-.9,1-1.5,1.8-2,.7-.5,1.6-.7,2.5-.7s1.5.2,2.1.5c.6.3,1.1.7,1.4,1.3v-1.6h3.4v11.2h-3.4v-1.6c-.3.5-.8.9-1.4,1.3-.6.3-1.3.5-2.1.5s-1.7-.2-2.5-.7c-.7-.5-1.3-1.1-1.8-2-.4-.9-.7-1.9-.7-3s.2-2.2.7-3ZM112.5,7.4c-.5-.5-1.1-.7-1.7-.7s-1.3.2-1.7.7c-.5.5-.7,1.2-.7,2s.2,1.5.7,2c.5.5,1.1.8,1.7.8s1.3-.2,1.7-.7c.5-.5.7-1.2.7-2s-.2-1.5-.7-2Z"/>
    <path class="cls-2" d="M128.1,5c.8.8,1.2,2,1.2,3.5v6.5h-3.4v-6.1c0-.7-.2-1.3-.6-1.7-.4-.4-.9-.6-1.6-.6s-1.2.2-1.6.6c-.4.4-.6,1-.6,1.7v6.1h-3.4V3.8h3.4v1.5c.3-.5.8-.9,1.4-1.2.6-.3,1.2-.4,2-.4,1.3,0,2.4.4,3.1,1.3Z"/>
    <path class="cls-1" d="M137.1,14.6c-.7-.3-1.3-.8-1.7-1.4-.4-.6-.6-1.3-.6-2h1.9c0,.7.3,1.2.8,1.7.5.4,1.2.7,2.1.7s1.6-.2,2.1-.7c.5-.4.8-1,.8-1.7s-.1-1-.4-1.3c-.3-.3-.7-.6-1.1-.8s-1-.4-1.8-.6c-.9-.2-1.7-.5-2.2-.7-.6-.2-1-.6-1.4-1.1-.4-.5-.6-1.2-.6-2.1s.2-1.4.6-2c.4-.6.9-1,1.6-1.4.7-.3,1.5-.5,2.4-.5,1.3,0,2.4.3,3.2,1,.8.7,1.3,1.5,1.4,2.6h-2c0-.5-.3-1-.8-1.4s-1.1-.6-2-.6-1.4.2-1.9.6c-.5.4-.7.9-.7,1.7s.1.9.4,1.2c.3.3.6.6,1.1.7.4.2,1,.4,1.8.6.9.3,1.7.5,2.2.8.6.2,1,.6,1.4,1.1.4.5.6,1.2.6,2.1s-.2,1.3-.5,1.9c-.4.6-.9,1.1-1.6,1.5-.7.4-1.5.6-2.5.6s-1.7-.2-2.5-.5Z"/>
    <path class="cls-1" d="M145.9,6.5c.5-.8,1.1-1.5,1.9-2,.8-.5,1.7-.7,2.7-.7s1.8.2,2.5.6c.7.4,1.2.9,1.6,1.6v-2h1.8v11h-1.8v-2c-.4.6-.9,1.2-1.6,1.6s-1.5.6-2.5.6-1.9-.2-2.6-.7c-.8-.5-1.4-1.2-1.9-2-.5-.9-.7-1.9-.7-3s.2-2.1.7-3ZM154,7.3c-.3-.6-.8-1.1-1.4-1.4-.6-.3-1.2-.5-1.9-.5s-1.3.2-1.9.5c-.6.3-1,.8-1.3,1.4-.3.6-.5,1.3-.5,2.2s.2,1.6.5,2.2c.3.6.8,1.1,1.3,1.4.6.3,1.2.5,1.9.5s1.3-.2,1.9-.5c.6-.3,1-.8,1.4-1.4.3-.6.5-1.3.5-2.2s-.2-1.5-.5-2.2Z"/>
    <path class="cls-1" d="M162.9,5.5h-2.3v9.5h-1.8V5.5h-1.4v-1.5h1.4v-.8c0-1.2.3-2.1,1-2.7.6-.6,1.7-.9,3.1-.9v1.5c-.8,0-1.4.2-1.7.5s-.5.8-.5,1.6v.8h2.3v1.5Z"/>
    <path class="cls-1" d="M164,6.5c.5-.8,1.1-1.5,1.9-2,.8-.5,1.7-.7,2.7-.7s1.8.2,2.5.6c.7.4,1.2.9,1.6,1.6v-2h1.8v11h-1.8v-2c-.4.6-.9,1.2-1.6,1.6s-1.5.6-2.5.6-1.9-.2-2.6-.7c-.8-.5-1.4-1.2-1.9-2-.5-.9-.7-1.9-.7-3s.2-2.1.7-3ZM172.2,7.3c-.3-.6-.8-1.1-1.4-1.4-.6-.3-1.2-.5-1.9-.5s-1.3.2-1.9.5c-.6.3-1,.8-1.3,1.4-.3.6-.5,1.3-.5,2.2s.2,1.6.5,2.2c.3.6.8,1.1,1.3,1.4.6.3,1.2.5,1.9.5s1.3-.2,1.9-.5c.6-.3,1-.8,1.4-1.4.3-.6.5-1.3.5-2.2s-.2-1.5-.5-2.2Z"/>
    <path class="cls-1" d="M179.8,4.3c.6-.3,1.3-.5,2.2-.5v1.9h-.5c-2,0-3.1,1.1-3.1,3.3v6h-1.8V4h1.8v1.8c.3-.6.8-1.1,1.4-1.5Z"/>
    <path class="cls-1" d="M183.1,1.9c-.2-.2-.4-.5-.4-.9s.1-.6.4-.9.5-.4.9-.4.6.1.9.4.4.5.4.9-.1.6-.4.9-.5.4-.9.4-.6-.1-.9-.4ZM184.9,4v11h-1.8V4h1.8Z"/>
    <path class="cls-1" d="M188.6,14.7c-.7-.3-1.2-.7-1.6-1.2s-.6-1.1-.6-1.8h1.9c0,.5.3,1,.8,1.3s1.1.5,1.8.5,1.2-.2,1.6-.5c.4-.3.6-.7.6-1.2s-.2-.8-.6-1.1c-.4-.2-1.1-.5-2-.7-.8-.2-1.5-.4-2-.7s-1-.5-1.3-1-.6-1-.6-1.7.2-1.1.5-1.5c.3-.5.8-.8,1.4-1.1.6-.3,1.3-.4,2.1-.4,1.2,0,2.2.3,2.9.9.7.6,1.1,1.5,1.2,2.5h-1.8c0-.6-.3-1-.7-1.4-.4-.3-1-.5-1.7-.5s-1.2.1-1.6.4c-.4.3-.6.6-.6,1.1s.1.7.4.9.5.4.9.6c.4.1.8.3,1.5.5.8.2,1.4.4,1.9.6.5.2.9.5,1.3.9.4.4.5,1,.6,1.6,0,.6-.2,1.1-.5,1.6-.3.5-.8.9-1.4,1.1s-1.3.4-2.1.4-1.6-.1-2.3-.4Z"/>
  </g>
  <g>
    <path class="cls-2" d="M.3,9.1c2.7-2.1,5.5-3.6,8.4-4.5l1.4,1.4c-2.6-.3-6.1,1.3-9.8,3.1Z"/>
    <path class="cls-2" d="M.3,9.3c3.8-1.9,9-3.1,12.5-3.1l-1.1,2.4c-2.7-1.7-7.8-.1-11.4.7Z"/>
    <path class="cls-1" d="M.9,9.4c3.7,0,7.2-.1,10.4,0l.3-.7-10.7.7Z"/>
  </g>
</svg>