<?xml version="1.0" encoding="UTF-8"?>
<svg id="Layer_1" data-name="Layer 1" xmlns="http://www.w3.org/2000/svg" viewBox="0 0 600 400">
  <g>
    <path d="M82.3,317.76c-4-2.23-7.18-5.35-9.53-9.35s-3.53-8.5-3.53-13.49,1.18-9.48,3.53-13.46c2.35-3.97,5.53-7.08,9.53-9.31,4-2.23,8.4-3.35,13.2-3.35s9.2,1.12,13.2,3.35c4,2.23,7.15,5.34,9.46,9.31,2.3,3.98,3.45,8.46,3.45,13.46s-1.16,9.49-3.49,13.49c-2.33,4-5.48,7.12-9.46,9.35-3.98,2.23-8.37,3.35-13.17,3.35s-9.2-1.11-13.2-3.35ZM105.28,305.68c2.45-2.72,3.67-6.3,3.67-10.77s-1.23-8.11-3.67-10.8c-2.45-2.69-5.71-4.04-9.78-4.04s-7.41,1.33-9.86,4c-2.45,2.67-3.67,6.28-3.67,10.84s1.22,8.11,3.67,10.8c2.45,2.69,5.73,4.04,9.86,4.04s7.33-1.36,9.78-4.07Z" style="fill: #172041; stroke-width: 0px;"/>
    <path d="M124.99,289.24c1.72-3.15,4.12-5.58,7.2-7.27,3.08-1.7,6.61-2.55,10.58-2.55,5.09,0,9.35,1.33,12.77,4,3.42,2.67,5.66,6.43,6.73,11.27h-13.24c-1.11-3.1-3.27-4.66-6.47-4.66-2.28,0-4.1.89-5.46,2.65-1.36,1.77-2.04,4.3-2.04,7.6s.68,5.83,2.04,7.6c1.36,1.77,3.17,2.66,5.46,2.66,3.2,0,5.36-1.55,6.47-4.66h13.24c-1.07,4.75-3.32,8.49-6.77,11.2-3.44,2.72-7.69,4.07-12.73,4.07-3.98,0-7.5-.85-10.58-2.55-3.08-1.7-5.48-4.12-7.2-7.27-1.72-3.15-2.58-6.84-2.58-11.06s.86-7.9,2.58-11.06Z" style="fill: #172041; stroke-width: 0px;"/>
    <path d="M203.3,303.28h-28.15c.19,2.52,1.01,4.45,2.44,5.78,1.43,1.33,3.19,2,5.27,2,3.1,0,5.26-1.31,6.47-3.93h13.24c-.68,2.67-1.9,5.07-3.67,7.2-1.77,2.13-3.99,3.81-6.66,5.02-2.67,1.21-5.65,1.82-8.95,1.82-3.98,0-7.52-.85-10.62-2.55-3.1-1.7-5.53-4.12-7.28-7.27-1.74-3.15-2.62-6.84-2.62-11.06s.86-7.9,2.58-11.06c1.72-3.15,4.13-5.58,7.24-7.27,3.1-1.7,6.67-2.55,10.69-2.55s7.42.82,10.47,2.47c3.06,1.65,5.44,4,7.16,7.06,1.72,3.06,2.58,6.62,2.58,10.69,0,1.16-.07,2.38-.22,3.64ZM190.79,296.37c0-2.13-.73-3.83-2.18-5.09-1.45-1.26-3.27-1.89-5.46-1.89s-3.84.61-5.27,1.82c-1.43,1.21-2.31,2.93-2.65,5.16h15.57Z" style="fill: #172041; stroke-width: 0px;"/>
    <path d="M206.31,289.24c1.58-3.15,3.72-5.58,6.44-7.27,2.72-1.7,5.75-2.55,9.09-2.55,2.86,0,5.37.58,7.53,1.75,2.16,1.16,3.82,2.69,4.98,4.58v-5.75h12.44v40.59h-12.44v-5.75c-1.21,1.89-2.9,3.42-5.06,4.58-2.16,1.16-4.67,1.75-7.53,1.75-3.3,0-6.3-.86-9.02-2.58-2.72-1.72-4.86-4.17-6.44-7.35-1.58-3.18-2.36-6.85-2.36-11.02s.79-7.83,2.36-10.98ZM231.77,292.95c-1.72-1.79-3.82-2.69-6.29-2.69s-4.57.89-6.29,2.65c-1.72,1.77-2.58,4.21-2.58,7.31s.86,5.56,2.58,7.38c1.72,1.82,3.82,2.73,6.29,2.73s4.57-.9,6.29-2.69c1.72-1.79,2.58-4.24,2.58-7.35s-.86-5.55-2.58-7.35Z" style="fill: #172041; stroke-width: 0px;"/>
    <path d="M288.29,284.19c2.84,3.08,4.25,7.31,4.25,12.69v23.71h-12.37v-22.04c0-2.72-.7-4.82-2.11-6.33-1.41-1.5-3.3-2.25-5.67-2.25s-4.27.75-5.67,2.25c-1.41,1.5-2.11,3.61-2.11,6.33v22.04h-12.44v-40.59h12.44v5.38c1.26-1.79,2.96-3.21,5.09-4.26,2.13-1.04,4.53-1.56,7.2-1.56,4.75,0,8.55,1.54,11.39,4.62Z" style="fill: #172041; stroke-width: 0px;"/>
    <path d="M321.02,319.32c-2.64-1.19-4.72-2.84-6.22-4.95-1.5-2.11-2.28-4.55-2.33-7.31h7.06c.24,2.38,1.22,4.38,2.95,6,1.72,1.63,4.23,2.44,7.53,2.44s5.64-.79,7.46-2.36c1.82-1.58,2.73-3.6,2.73-6.07,0-1.94-.53-3.52-1.6-4.73-1.07-1.21-2.4-2.13-4-2.76-1.6-.63-3.76-1.31-6.47-2.04-3.35-.87-6.03-1.75-8.04-2.62-2.01-.87-3.74-2.24-5.17-4.11-1.43-1.87-2.14-4.38-2.14-7.53,0-2.76.7-5.21,2.11-7.35,1.4-2.13,3.38-3.78,5.93-4.95,2.55-1.16,5.47-1.75,8.76-1.75,4.75,0,8.64,1.19,11.68,3.56,3.03,2.38,4.74,5.53,5.13,9.46h-7.28c-.24-1.94-1.26-3.65-3.05-5.13-1.79-1.48-4.17-2.22-7.13-2.22-2.76,0-5.02.72-6.77,2.15-1.75,1.43-2.62,3.43-2.62,6,0,1.84.52,3.35,1.56,4.51,1.04,1.16,2.33,2.05,3.85,2.66,1.53.61,3.67,1.3,6.44,2.07,3.35.92,6.04,1.83,8.07,2.73,2.04.9,3.78,2.28,5.24,4.15,1.45,1.87,2.18,4.4,2.18,7.6,0,2.47-.66,4.8-1.96,6.98-1.31,2.18-3.25,3.95-5.82,5.31-2.57,1.36-5.6,2.04-9.09,2.04s-6.34-.59-8.98-1.78Z" style="fill: #0086ff; stroke-width: 0px;"/>
    <path d="M352.99,289.79c1.65-3.08,3.91-5.47,6.8-7.16,2.88-1.7,6.1-2.55,9.64-2.55s6.52.75,9.09,2.25c2.57,1.5,4.49,3.39,5.75,5.67v-7.27h6.69v39.86h-6.69v-7.42c-1.31,2.33-3.26,4.26-5.86,5.78-2.59,1.53-5.61,2.29-9.05,2.29s-6.74-.87-9.6-2.62c-2.86-1.75-5.12-4.19-6.76-7.35-1.65-3.15-2.47-6.74-2.47-10.77s.82-7.65,2.47-10.73ZM382.45,292.73c-1.21-2.23-2.85-3.94-4.91-5.13-2.06-1.19-4.33-1.78-6.8-1.78s-4.73.58-6.76,1.75c-2.04,1.16-3.66,2.86-4.87,5.09-1.21,2.23-1.82,4.85-1.82,7.86s.61,5.71,1.82,7.96c1.21,2.26,2.84,3.98,4.87,5.16,2.04,1.19,4.29,1.78,6.76,1.78s4.74-.59,6.8-1.78c2.06-1.19,3.7-2.91,4.91-5.16,1.21-2.25,1.82-4.88,1.82-7.89s-.61-5.62-1.82-7.86Z" style="fill: #0086ff; stroke-width: 0px;"/>
    <path d="M414.75,286.19h-8.36v34.41h-6.62v-34.41h-5.16v-5.46h5.16v-2.84c0-4.46,1.15-7.72,3.46-9.78,2.3-2.06,6-3.09,11.09-3.09v5.53c-2.91,0-4.96.57-6.15,1.71-1.19,1.14-1.78,3.02-1.78,5.64v2.84h8.36v5.46Z" style="fill: #0086ff; stroke-width: 0px;"/>
    <path d="M418.82,289.79c1.65-3.08,3.91-5.47,6.8-7.16,2.88-1.7,6.1-2.55,9.64-2.55s6.52.75,9.09,2.25c2.57,1.5,4.49,3.39,5.75,5.67v-7.27h6.69v39.86h-6.69v-7.42c-1.31,2.33-3.26,4.26-5.86,5.78-2.59,1.53-5.61,2.29-9.05,2.29s-6.74-.87-9.6-2.62c-2.86-1.75-5.12-4.19-6.76-7.35-1.65-3.15-2.47-6.74-2.47-10.77s.82-7.65,2.47-10.73ZM448.28,292.73c-1.21-2.23-2.85-3.94-4.91-5.13-2.06-1.19-4.33-1.78-6.8-1.78s-4.73.58-6.76,1.75c-2.04,1.16-3.66,2.86-4.87,5.09-1.21,2.23-1.82,4.85-1.82,7.86s.61,5.71,1.82,7.96c1.21,2.26,2.84,3.98,4.87,5.16,2.04,1.19,4.29,1.78,6.76,1.78s4.74-.59,6.8-1.78c2.06-1.19,3.7-2.91,4.91-5.16,1.21-2.25,1.82-4.88,1.82-7.89s-.61-5.62-1.82-7.86Z" style="fill: #0086ff; stroke-width: 0px;"/>
    <path d="M475.95,281.9c2.16-1.26,4.79-1.89,7.89-1.89v6.84h-1.75c-7.42,0-11.13,4.03-11.13,12.07v21.68h-6.62v-39.86h6.62v6.47c1.16-2.28,2.83-4.05,4.98-5.31Z" style="fill: #0086ff; stroke-width: 0px;"/>
    <path d="M488.07,272.95c-.87-.87-1.31-1.94-1.31-3.2s.44-2.33,1.31-3.2c.87-.87,1.94-1.31,3.2-1.31s2.24.44,3.09,1.31,1.27,1.94,1.27,3.2-.42,2.33-1.27,3.2-1.88,1.31-3.09,1.31-2.33-.44-3.2-1.31ZM494.47,280.73v39.86h-6.62v-39.86h6.62Z" style="fill: #0086ff; stroke-width: 0px;"/>
    <path d="M508,319.68c-2.43-1.04-4.34-2.5-5.75-4.36-1.41-1.87-2.18-4.01-2.33-6.44h6.84c.19,1.99,1.13,3.61,2.8,4.87,1.67,1.26,3.87,1.89,6.58,1.89,2.52,0,4.51-.56,5.96-1.67,1.45-1.11,2.18-2.52,2.18-4.22s-.78-3.04-2.33-3.89c-1.55-.85-3.95-1.68-7.2-2.51-2.96-.77-5.37-1.56-7.24-2.36-1.87-.8-3.47-1.99-4.8-3.56-1.33-1.58-2-3.65-2-6.22,0-2.04.61-3.9,1.82-5.6,1.21-1.7,2.93-3.04,5.16-4.04,2.23-.99,4.78-1.49,7.64-1.49,4.41,0,7.98,1.12,10.69,3.35,2.72,2.23,4.17,5.29,4.36,9.17h-6.62c-.15-2.08-.98-3.76-2.51-5.02-1.53-1.26-3.58-1.89-6.15-1.89-2.38,0-4.27.51-5.67,1.53-1.41,1.02-2.11,2.35-2.11,4,0,1.31.42,2.39,1.27,3.24.85.85,1.91,1.53,3.2,2.04,1.28.51,3.07,1.08,5.35,1.71,2.86.78,5.19,1.54,6.98,2.29,1.79.75,3.33,1.88,4.62,3.38,1.28,1.5,1.95,3.47,2,5.89,0,2.18-.61,4.15-1.82,5.89-1.21,1.75-2.92,3.12-5.13,4.11-2.21.99-4.74,1.49-7.6,1.49-3.05,0-5.8-.52-8.22-1.56Z" style="fill: #0086ff; stroke-width: 0px;"/>
  </g>
  <path d="M543.5,143.29l-37.06,83.05c-101.06-62.14-288.51-5.62-421.5,26.91-1.17.57-2.33,1.14-3.49,1.72,99.62-76.31,202.26-135.02,309.49-166.96l52.94,51.58c-88.08-8.81-147.81,25.49-278.19,78.08,144.58-58.32,216.72-74.32,377.81-74.38Z" style="fill: #172041; stroke-width: 0px;"/>
</svg>