<?xml version="1.0" encoding="UTF-8"?>
<svg id="Layer_1" data-name="Layer 1" xmlns="http://www.w3.org/2000/svg" version="1.1" viewBox="0 0 155 34">
  <path d="M119.107,11.227l-7.167,15.926c-18.315-11.148-52.158-.995-76.048,4.977.319-.159.617-.299.936-.458.259-.199.538-.398.796-.597C55.183,17.756,73.319,7.524,92.232,1.87l9.556,9.357c-14.035-1.473-32.251,5.375-52.079,14.592,23.173-9.118,50.108-14.592,69.399-14.592Z" fill="#172041" stroke-width="0"/>
  <path d="M38.97,23.62c-.13.1-.27.2-.4.3-.16.08-.31.15-.47.23v-.1c.29-.14.58-.29.87-.43Z" fill="#172041" stroke-width="0"/>
  <path d="M38.97,23.62c-.13.1-.27.2-.4.3-.16.08-.31.15-.47.23v-.1c.29-.14.58-.29.87-.43Z" fill="#172041" stroke-width="0"/>
</svg>