<?xml version="1.0" encoding="UTF-8"?>
<svg id="Layer_1" data-name="Layer 1" xmlns="http://www.w3.org/2000/svg" viewBox="0 0 4251.97 2891.34">
  <path d="M1254.84,815.52h310.03c98.61,0,179.29,80.68,179.29,179.29v515.47c0,98.6-80.68,179.29-179.29,179.29h-310.03c-98.61,0-179.29-80.69-179.29-179.29v-515.47c0-98.61,80.68-179.29,179.29-179.29h0Z" style="fill: #fff; fill-rule: evenodd; stroke-width: 0px;"/>
  <path d="M1676.92,2459.03h-534.14c-78.06,0-141.94-63.88-141.94-141.95V752.02c0-78.06,63.87-141.94,141.94-141.94h534.14c6.33,0,12.56.43,18.68,1.24v-115.16c0-33.9,27.73-61.63,61.63-61.63h0c33.9,0,61.63,27.73,61.63,61.63v194.23c0,8.62-1.8,16.84-5.03,24.3,3.27,11.91,5.03,24.43,5.03,37.33v1565.07c0,78.06-63.87,141.95-141.94,141.95h0ZM1254.84,815.52h310.02c98.61,0,179.29,80.68,179.29,179.29v515.47c0,98.6-80.68,179.29-179.29,179.29h-310.02c-98.61,0-179.3-80.69-179.3-179.29v-515.47c0-98.61,80.69-179.29,179.3-179.29h0Z" style="fill: #d2e288; fill-rule: evenodd; stroke-width: 0px;"/>
  <path d="M1944.41,848.34l340.86-1.33c124.28,15.79,181.7,108.8,176.48,244.12-9.46,136.39-86.79,203.05-215.92,214.74l-123.74-2.46,3.48,374.15h-181.16v-829.23h0ZM2127.48,933.38c84.15-12.06,148.74,11.32,153.15,143.81-2.79,118.28-65.66,148.22-153.15,141.94v-285.75h0Z" style="fill: #8dc63f; fill-rule: evenodd; stroke-width: 0px;"/>
  <path d="M2778.33,838.05l215.81-.99-1.61,92.62-169.04-.76c-97.53,18.12-75.69,122.17-80.43,197.35l227.41-4.26.78,113.69-220.32-2.34-1.06,275.3c8.65,71.38,46.21,107.28,109.64,111.43l121.04-1.33,36.91.81-1.16,85.95-37.81,1.44-230.04-2.45c-79.28-2.68-143.29-42-172.75-164.23l-5.64-534.11c3.23-109.5,75.54-163.2,208.26-168.12h0Z" style="fill: #8dc63f; fill-rule: evenodd; stroke-width: 0px;"/>
  <path d="M3073.39,1072.45c-13.61-178.91,86.09-219.33,207.32-233.45,141.9-8.4,231,50.77,248.39,201.74l-167.5-.45c-10.62-76.15-69.87-105.42-124.07-69.18-77.27,94.53,163.88,260.89,236.16,322.59,124.98,98.84,103.82,372.8-88.67,423.59l-117.38,4.17c-119.21,2.81-190.18-72.5-210.72-212.1l168.77-2.98c9.19,59.62,34.63,96.68,88.64,94.04,84.03-15.96,107.15-89.95,47.38-184.35-125.12-106.25-273.27-205.92-288.31-343.61h0Z" style="fill: #8dc63f; fill-rule: evenodd; stroke-width: 0px;"/>
  <path d="M106.3,810.99h177.39l1.87,55.09c107.2-46.32,188.03-79.05,272.71-2.8,151.4-71.49,265.9-63.35,322.67,69.35l7.9,744.94h-178.88v-710.57c-13.24-60.83-61.41-71.23-119.53-67.23v777.8h-183.03v-710.57c-13.24-60.83-61.41-71.23-119.52-67.23v777.8H106.3v-866.58h0Z" style="fill: #8dc63f; fill-rule: evenodd; stroke-width: 0px;"/>
  <path d="M3628.58,1699.35h183.97v-457.57h153.14v457.57h178.36v-653.67c-3.58-132.85-105.69-216.1-250.26-216.65-164.95-1.45-259.01,76.77-265.21,209.17v661.14h0ZM3812.55,999c6.07-48.84,21.94-68.51,75.64-73.77,54.44,1.41,73.81,32.82,77.51,81.24v132.6h-153.14v-140.07h0Z" style="fill: #8dc63f; fill-rule: evenodd; stroke-width: 0px;"/>
  <path d="M1218.41,1164.29c30.67,71.74,72.42,104.72,123.02,106.74-78.89,58.93-164.23,94.74-253.2,117.61-55.87-3.58-109.3-17.8-161.17-31.99,131.05-25.87,228.77-89.3,291.35-192.36h0Z" style="fill: #82221c; fill-rule: evenodd; stroke: #cd8c5d; stroke-miterlimit: 2.61; stroke-width: 1.72px;"/>
  <path d="M1562.06,979.39l369.79,186.76c-188.33,247.79-505.91,254.31-844.16,222.25,226.14-55.73,382.71-193.92,474.38-409.01h0Z" style="fill: #ec2127; fill-rule: evenodd; stroke: #cd8c5d; stroke-miterlimit: 2.61; stroke-width: 1.72px;"/>
</svg>